<svg width="14" height="8" viewBox="0 0 14 8" fill="none" xmlns="http://www.w3.org/2000/svg">
<g id="Group">
<g id="Group_2">
<path id="Vector" d="M7.34371 7.7868L13.4066 1.72384C13.5469 1.58361 13.6242 1.39642 13.6242 1.19682C13.6242 0.99722 13.5469 0.810026 13.4066 0.669798L12.9602 0.223303C12.6693 -0.0672345 12.1966 -0.0672345 11.9061 0.223303L6.81491 5.31452L1.71805 0.217653C1.57771 0.0774244 1.39063 -5.34747e-07 1.19114 -5.43467e-07C0.991429 -5.52196e-07 0.804347 0.0774244 0.663897 0.217653L0.217624 0.664148C0.0772838 0.804487 -2.96072e-05 0.99157 -2.9616e-05 1.19117C-2.96247e-05 1.39077 0.0772838 1.57796 0.217624 1.71819L6.28601 7.7868C6.42679 7.92736 6.61476 8.00456 6.81458 8.00412C7.01518 8.00456 7.20303 7.92736 7.34371 7.7868Z" fill="#E84E1B"/>
</g>
</g>
</svg>
