<svg width="36" height="36" viewBox="0 0 36 36" fill="none" xmlns="http://www.w3.org/2000/svg">
<g id="Group 741">
<path id="Vector" fill-rule="evenodd" clip-rule="evenodd" d="M19.4766 36H16.5234C15.75 36 15.1875 35.4375 15.0469 34.5938L14.5547 31.0781C13.4297 30.7969 12.3047 30.3047 11.1797 29.6719L8.36719 31.8516C7.66406 32.3438 6.89062 32.2734 6.32812 31.7812L4.21875 29.6719C3.72656 29.1094 3.65625 28.3359 4.14844 27.6328L6.32812 24.8203C5.625 23.6953 5.20312 22.5703 4.92188 21.4453L1.40625 20.9531C0.5625 20.8125 0 20.25 0 19.4766V16.5234C0 15.75 0.5625 15.1875 1.40625 15.0469L4.92188 14.5547C5.20312 13.4297 5.625 12.375 6.32812 11.25L4.21875 8.36719C3.65625 7.80469 3.72656 6.89062 4.21875 6.32812L6.32812 4.21875C6.82031 3.72656 7.59375 3.72656 8.36719 4.14844L11.1797 6.32812C12.3047 5.625 13.4297 5.20312 14.5547 4.92188L15.0469 1.40625C15.1875 0.703125 15.6797 0 16.5234 0H19.4766C20.3203 0 20.8828 0.703125 20.9531 1.40625L21.4453 4.92188C22.5703 5.20312 23.625 5.625 24.75 6.32812L27.6328 4.14844C28.1953 3.79688 29.1094 3.65625 29.6719 4.21875L31.7812 6.32812C32.3438 6.89062 32.2031 7.80469 31.8516 8.36719L29.6719 11.25C30.375 12.375 30.7969 13.4297 31.0781 14.5547L34.5938 15.0469C35.2969 15.1875 36 15.6797 36 16.5234V19.4766C36 20.3203 35.2969 20.8828 34.5938 20.9531L31.0781 21.4453C30.7969 22.5703 30.375 23.6953 29.7422 24.8203L31.8516 27.6328V27.7031C32.2734 28.4062 32.2734 29.1797 31.7812 29.6719L29.6719 31.7812C29.1797 32.2734 28.2656 32.3438 27.6328 31.8516L24.8203 29.6719C23.625 30.375 22.5703 30.7969 21.4453 31.0781L20.9531 34.5938C20.8125 35.4375 20.25 36 19.4766 36ZM11.1797 28.6172C11.25 28.6172 11.3906 28.6172 11.4609 28.6875C12.5859 29.4609 13.8516 29.9531 15.0469 30.1641C15.2578 30.2344 15.3984 30.375 15.4688 30.5859L16.0312 34.4531C16.0312 34.6641 16.1719 35.0156 16.5234 35.0156H19.4766C19.8281 35.0156 19.9688 34.6641 19.9688 34.4531L20.5312 30.5859C20.5312 30.375 20.7422 30.2344 20.9531 30.1641C22.0781 29.9531 23.2734 29.4609 24.5391 28.6875C24.75 28.6172 24.9609 28.6172 25.1016 28.6875L28.1953 31.0078V31.0781C28.4766 31.2188 28.8281 31.2891 28.9688 31.0781L31.0781 28.9688C31.2891 28.8281 31.1484 28.4766 31.0078 28.1953L28.6875 25.1016C28.6172 24.9609 28.6172 24.75 28.6875 24.5391C29.4609 23.4141 29.9531 22.1484 30.1641 20.9531C30.2344 20.7422 30.375 20.6016 30.5859 20.5312L34.4531 19.9688C34.6641 19.9688 35.0156 19.8281 35.0156 19.4766V16.5234C35.0156 16.1719 34.6641 16.0312 34.4531 16.0312L30.5859 15.4688C30.375 15.3984 30.2344 15.2578 30.1641 15.0469C29.9531 13.9219 29.4609 12.7266 28.6875 11.3906C28.6172 11.25 28.6172 11.0391 28.7578 10.8984L31.0078 7.80469C31.2188 7.52344 31.2188 7.17188 31.0781 7.03125L28.9688 4.92188C28.8281 4.78125 28.4766 4.78125 28.1953 4.99219L25.1016 7.3125C24.9609 7.38281 24.75 7.45312 24.6094 7.3125C23.2734 6.53906 22.1484 6.04688 20.9531 5.83594C20.7422 5.76562 20.6016 5.625 20.5312 5.41406L19.9688 1.54688C19.9688 1.33594 19.8281 0.984375 19.4766 0.984375H16.5234C16.2422 0.984375 16.1016 1.33594 16.0312 1.54688L15.4688 5.41406C15.4688 5.625 15.3281 5.76562 15.1172 5.83594C13.8516 6.04688 12.6562 6.60938 11.4609 7.3125C11.25 7.45312 11.0391 7.38281 10.8984 7.3125L7.80469 4.99219C7.59375 4.85156 7.24219 4.78125 7.03125 4.92188L4.92188 7.03125C4.78125 7.24219 4.78125 7.59375 4.99219 7.80469L7.3125 10.8984C7.38281 11.0391 7.45312 11.25 7.3125 11.4609C6.53906 12.7266 6.11719 13.9219 5.83594 15.1172C5.76562 15.3281 5.625 15.4688 5.41406 15.4688L1.54688 16.0312C1.33594 16.1016 0.984375 16.1719 0.984375 16.5234V19.4766C0.984375 19.8984 1.33594 19.9688 1.54688 19.9688L5.41406 20.5312C5.625 20.6016 5.83594 20.7422 5.83594 20.9531C6.11719 22.1484 6.60938 23.4141 7.3125 24.6094C7.45312 24.75 7.45312 24.9609 7.3125 25.1719L4.99219 28.1953C4.78125 28.5469 4.78125 28.8281 4.92188 28.9688L7.03125 31.0781C7.24219 31.2891 7.52344 31.2891 7.80469 31.0781L10.8984 28.7578C10.9688 28.6172 11.0391 28.6172 11.1797 28.6172Z" fill="white"/>
<path id="Vector_2" fill-rule="evenodd" clip-rule="evenodd" d="M18 25.875C15.9239 25.875 13.9193 25.0875 12.4159 23.5841C10.9125 22.0807 10.125 20.0761 10.125 18C10.125 15.9239 10.9125 13.9193 12.4159 12.4159C13.9193 10.9841 15.9239 10.125 18 10.125C20.0761 10.125 22.0807 10.9125 23.5841 12.4159C25.0159 13.9193 25.875 15.9239 25.875 18C25.875 20.0761 25.0159 22.0807 23.5841 23.5841C22.0807 25.0875 20.0761 25.875 18 25.875ZM18 11.1273C14.2057 11.1273 11.1273 14.2057 11.1273 18C11.1273 21.7943 14.2057 24.8727 18 24.8727C21.7943 24.8727 24.8727 21.7943 24.8727 18C24.8727 14.2057 21.7943 11.1273 18 11.1273Z" fill="white"/>
</g>
</svg>
