<svg width="20" height="16" viewBox="0 0 20 16" fill="none" xmlns="http://www.w3.org/2000/svg">
<g id="Group">
<g id="Group_2">
<path id="Vector" d="M18.6657 15.8412H0.364629C0.225078 15.8412 0.105469 15.7423 0.105469 15.627V8.03177C0.105469 7.91644 0.225078 7.81763 0.364629 7.81763C0.504179 7.81763 0.623804 7.91644 0.623804 8.03177V15.4045H18.4065V8.03177C18.4065 7.91644 18.5261 7.81763 18.6657 7.81763C18.8052 7.81763 18.9249 7.91644 18.9249 8.03177V15.627C18.9249 15.7423 18.8052 15.8412 18.6657 15.8412Z" fill="#F17F26"/>
</g>
<g id="Group 592">
<g id="Group 591">
<path id="Vector_2" d="M18.6658 15.9234H0.364704C0.165346 15.9234 0.00585938 15.7916 0.00585938 15.6269V8.03165C0.00585938 7.8669 0.165346 7.73511 0.364704 7.73511C0.564062 7.73511 0.723549 7.8669 0.723549 8.03165V15.3303H18.3069V8.03165C18.3069 7.8669 18.4664 7.73511 18.6658 7.73511C18.8651 7.73511 19.0246 7.8669 19.0246 8.03165V15.6269C19.0246 15.7834 18.8651 15.9234 18.6658 15.9234ZM0.364704 7.89987C0.274993 7.89987 0.205214 7.95751 0.205214 8.03165V15.6269C0.205214 15.701 0.274993 15.7586 0.364704 15.7586H18.6658C18.7555 15.7586 18.8253 15.701 18.8253 15.6269V8.03165C18.8253 7.95751 18.7555 7.89987 18.6658 7.89987C18.5761 7.89987 18.5063 7.95751 18.5063 8.03165V15.4044C18.5063 15.4456 18.4664 15.4868 18.4066 15.4868H0.623879C0.57404 15.4868 0.524194 15.4538 0.524194 15.4044V8.03165C0.524194 7.95751 0.454415 7.89987 0.364704 7.89987Z" fill="#F17F26"/>
</g>
<g id="Group_3">
<g id="Group_4">
<path id="Vector_3" d="M9.5168 12.1671C9.37735 12.1671 9.25781 12.0683 9.25781 11.9529V0.296586C9.25781 0.181258 9.37735 0.0823975 9.5168 0.0823975C9.65624 0.0823975 9.77576 0.181258 9.77576 0.296586V11.9529C9.77576 12.0765 9.65624 12.1671 9.5168 12.1671Z" fill="#F17F26"/>
<path id="Vector_4" d="M9.51678 12.2495C9.31757 12.2495 9.1582 12.1177 9.1582 11.9529V0.296596C9.1582 0.131842 9.31757 0 9.51678 0C9.71599 0 9.87536 0.131842 9.87536 0.296596V11.9529C9.87536 12.1177 9.70603 12.2495 9.51678 12.2495ZM9.51678 0.164764C9.42714 0.164764 9.35741 0.222457 9.35741 0.296596V11.9529C9.35741 12.0271 9.42714 12.0848 9.51678 12.0848C9.60643 12.0848 9.67614 12.0271 9.67614 11.9529V0.296596C9.67614 0.222457 9.60643 0.164764 9.51678 0.164764Z" fill="#F17F26"/>
</g>
<g id="Group_5">
<path id="Vector_5" d="M9.51322 12.4966C9.43348 12.4966 9.35373 12.4637 9.30389 12.406L7.37011 10.1571C7.29037 10.0583 7.3103 9.92645 7.42992 9.85231C7.54953 9.78641 7.70903 9.80288 7.79874 9.90174L9.52318 11.9035L11.2476 9.90174C11.3274 9.80288 11.4968 9.77817 11.6164 9.85231C11.7361 9.91821 11.766 10.0583 11.6763 10.1571L9.74248 12.406C9.6727 12.4637 9.59296 12.4966 9.51322 12.4966Z" fill="#F17F26"/>
<path id="Vector_6" d="M9.51279 12.579C9.39318 12.579 9.28352 12.5296 9.22371 12.4555L7.28994 10.2065C7.23013 10.1406 7.2102 10.0665 7.23013 9.98416C7.25007 9.90178 7.29992 9.83584 7.37966 9.79466C7.53915 9.70404 7.76841 9.72877 7.87806 9.86057L9.52275 11.7635L11.1674 9.86057C11.2871 9.72877 11.5064 9.6958 11.6658 9.79466C11.7456 9.84408 11.7954 9.91002 11.8154 9.98416C11.8353 10.0583 11.8054 10.1406 11.7556 10.2065L9.82179 12.4555C9.73208 12.5296 9.62244 12.579 9.51279 12.579ZM7.56904 9.90175C7.53913 9.90175 7.49927 9.91001 7.46937 9.92649C7.4295 9.9512 7.40955 9.9759 7.39959 10.0171C7.38962 10.05 7.39958 10.0912 7.42949 10.1159L9.36326 12.3648C9.42307 12.439 9.57259 12.439 9.6324 12.3648L11.5662 10.1159C11.5961 10.083 11.606 10.05 11.5961 10.0171C11.5861 9.98414 11.5662 9.9512 11.5263 9.92649C11.4565 9.8853 11.3469 9.89352 11.297 9.95942L9.5726 11.9612C9.53272 12.0024 9.45298 12.0024 9.41311 11.9612L7.68866 9.95942C7.66873 9.91823 7.61888 9.90175 7.56904 9.90175Z" fill="#F17F26"/>
</g>
</g>
</g>
</g>
</svg>
