<svg width="19" height="12" viewBox="0 0 19 12" fill="none" xmlns="http://www.w3.org/2000/svg">
<path id="path7654" fill-rule="evenodd" clip-rule="evenodd" d="M9.01324 0C5.29374 0 2.42242 2.63327 1.029 4.17478C0.43938 4.82707 0.101398 5.31035 0.101398 5.31035C0.0353929 5.40491 0 5.51744 0 5.63276C0 5.74807 0.0353929 5.86061 0.101398 5.95516C0.101398 5.95516 0.367334 6.33618 0.833139 6.87067C2.14111 8.37148 5.10992 11.2655 9.01324 11.2655C13.0199 11.2655 16.0459 8.21906 17.2979 6.75403C17.7 6.28352 17.9262 5.95516 17.9262 5.95516C17.9922 5.86061 18.0276 5.74807 18.0276 5.63276C18.0276 5.51744 17.9922 5.40491 17.9262 5.31035C17.9262 5.31035 17.678 4.9528 17.2396 4.44547C15.9544 2.95854 12.96 0 9.01324 0ZM9.01324 1.12677C12.3813 1.12677 15.1928 3.80017 16.3868 5.18161C16.6258 5.45816 16.6483 5.50219 16.7488 5.63496C16.6552 5.75812 16.6443 5.78409 16.4407 6.02229C15.2788 7.3819 12.4323 10.1387 9.01324 10.1387C5.68231 10.1387 2.89752 7.52541 1.68152 6.13012C1.4204 5.83051 1.39229 5.77491 1.28649 5.63496C1.40901 5.47136 1.48659 5.34955 1.86418 4.93183C3.16221 3.49584 5.83918 1.12677 9.01324 1.12677ZM9.01324 2.25354C7.15301 2.25354 5.63622 3.77033 5.63622 5.63056C5.63622 7.49078 7.15301 9.01197 9.01324 9.01197C10.8735 9.01197 12.3947 7.49078 12.3947 5.63056C12.3947 3.77033 10.8735 2.25354 9.01324 2.25354ZM9.01324 3.38142C10.2647 3.38142 11.2679 4.37909 11.2679 5.63056C11.2679 6.88202 10.2647 7.8852 9.01324 7.8852C7.76177 7.8852 6.7641 6.88202 6.7641 5.63056C6.7641 4.37909 7.76177 3.38142 9.01324 3.38142Z" fill="#E84E1B"/>
</svg>
