<svg width="18" height="18" viewBox="0 0 18 18" fill="none" xmlns="http://www.w3.org/2000/svg">
<path d="M6.76575 4.27078C6.69263 3.96816 6.87938 3.66441 7.18088 3.59241C10.7674 2.72953 14.3618 4.42941 17.8695 8.63916C18.0428 8.84728 18.0439 9.14991 17.8706 9.35803C17.0269 10.3784 16.1246 11.2964 15.1898 12.0839C15.084 12.1728 14.9558 12.2167 14.8275 12.2167C14.6678 12.2167 14.5091 12.148 14.3978 12.0164C14.1964 11.779 14.2279 11.4247 14.4653 11.2233C15.2381 10.5719 15.9885 9.82491 16.7006 8.99916C13.5911 5.40816 10.4805 3.96028 7.44413 4.68591C7.12913 4.75791 6.83775 4.57228 6.76575 4.27078ZM8.82563 6.13378C8.784 6.44203 8.99888 6.72553 9.306 6.76716C10.3061 6.90216 11.097 7.69416 11.2331 8.69203C11.2703 8.97441 11.5121 9.17916 11.7889 9.17916C11.8136 9.17916 11.8395 9.17803 11.8654 9.17466C12.1725 9.13303 12.3885 8.84953 12.3469 8.54128C12.1444 7.04166 10.9564 5.85366 9.45675 5.65116C9.153 5.61066 8.86613 5.82553 8.82563 6.13378ZM17.8358 17.0384C18.0551 17.2578 18.0551 17.6144 17.8358 17.8338C17.7255 17.944 17.5815 17.9992 17.4375 17.9992C17.2935 17.9992 17.1495 17.944 17.0393 17.8349L12.8351 13.6308C11.5571 14.2844 10.2758 14.6287 8.99663 14.6287C6.02438 14.6287 3.05775 12.8692 0.130501 9.36028C-0.0427486 9.15216 -0.0438736 8.84841 0.129376 8.64028C1.46025 7.03941 2.8125 5.81878 4.15913 4.95366L0.165376 0.959906C-0.0539986 0.740531 -0.0539986 0.383906 0.165376 0.164531C0.384751 -0.0548438 0.741376 -0.0548438 0.960751 0.164531L17.8358 17.0384ZM6.75 8.99916C6.75 10.24 7.75913 11.2492 9 11.2492C9.40388 11.2492 9.79538 11.1322 10.1374 10.9319L7.06613 7.86066C6.86475 8.20266 6.75 8.58966 6.75 8.99916ZM12.0038 12.7983L10.9508 11.7453C10.3849 12.1458 9.702 12.3742 9 12.3742C7.13925 12.3742 5.625 10.8599 5.625 8.99916C5.625 8.28703 5.85 7.61428 6.25275 7.04728L4.97138 5.76591C3.7575 6.50728 2.52563 7.57941 1.29938 8.99916C4.93425 13.1988 8.4465 14.4475 12.0038 12.7983Z" fill="#E84E1B"/>
</svg>
