<svg width="13" height="10" viewBox="0 0 13 10" fill="none" xmlns="http://www.w3.org/2000/svg">
<g id="detalhes" clip-path="url(#clip0_3173_6786)">
<g id="Icons">
<g id="Rounded">
<g id="Image">
<g id="-Round-/-Image-/-remove_red_eye">
<g id="Group">
<path id="&#240;&#159;&#148;&#185;-Icon-Color" fill-rule="evenodd" clip-rule="evenodd" d="M6.5 0.3125C3.54545 0.3125 1.02227 2.25625 0 5C1.02227 7.74375 3.54545 9.6875 6.5 9.6875C9.45455 9.6875 11.9777 7.74375 13 5C11.9777 2.25625 9.45455 0.3125 6.5 0.3125ZM6.5 8.125C4.86909 8.125 3.54545 6.725 3.54545 5C3.54545 3.275 4.86909 1.875 6.5 1.875C8.13091 1.875 9.45455 3.275 9.45455 5C9.45455 6.725 8.13091 8.125 6.5 8.125ZM6.5 3.125C5.51909 3.125 4.72727 3.9625 4.72727 5C4.72727 6.0375 5.51909 6.875 6.5 6.875C7.48091 6.875 8.27273 6.0375 8.27273 5C8.27273 3.9625 7.48091 3.125 6.5 3.125Z" fill="#0F2356"/>
</g>
</g>
</g>
</g>
</g>
</g>
<defs>
<clipPath id="clip0_3173_6786">
<rect width="13" height="10" fill="white"/>
</clipPath>
</defs>
</svg>
