<svg width="61" height="58" viewBox="0 0 61 58" fill="none" xmlns="http://www.w3.org/2000/svg">
<g filter="url(#filter0_d_3184_7131)">
<g filter="url(#filter1_d_3184_7131)">
<rect x="4" width="50" height="50" fill="#54ACF2"/>
</g>
<path d="M31.4246 24.8469H26.0496C25.8746 24.8469 25.7246 24.9969 25.7246 25.1719V36.2969C25.7246 36.4719 25.8746 36.6219 26.0496 36.6219H31.4246C31.5996 36.6219 31.7496 36.4719 31.7496 36.2969V25.1719C31.7496 24.9969 31.6121 24.8469 31.4246 24.8469ZM31.0996 35.972H26.3746V25.5094H31.0996V35.972Z" fill="#ECF0F8"/>
<path d="M31.575 36.275H26.2C25.95 36.275 25.75 36.075 25.75 35.825V24.7C25.75 24.45 25.95 24.25 26.2 24.25H31.575C31.825 24.25 32.025 24.45 32.025 24.7V35.825C32.025 36.075 31.825 36.275 31.575 36.275ZM26.2 24.5C26.0875 24.5 26 24.5875 26 24.7V35.825C26 35.9375 26.0875 36.025 26.2 36.025H31.575C31.6875 36.025 31.775 35.9375 31.775 35.825V24.7C31.775 24.5875 31.6875 24.5 31.575 24.5H26.2ZM31.25 35.625H26.525C26.4625 35.625 26.4 35.575 26.4 35.5V25.0375C26.4 24.975 26.45 24.9125 26.525 24.9125H31.25C31.3125 24.9125 31.375 24.9625 31.375 25.0375V35.5C31.375 35.575 31.3125 35.625 31.25 35.625ZM26.65 35.375H31.125V25.15H26.65V35.375Z" fill="#ECF0F8"/>
<path d="M40.3133 18.9592H34.9383C34.7633 18.9592 34.6133 19.1092 34.6133 19.2842V36.2967C34.6133 36.4717 34.7633 36.6217 34.9383 36.6217H40.3133C40.4883 36.6217 40.6383 36.4717 40.6383 36.2967V19.2967C40.6383 19.1092 40.5008 18.9592 40.3133 18.9592ZM39.9883 35.9717H35.2633V19.6217H39.9883V35.9717Z" fill="#ECF0F8"/>
<path d="M40.3132 36.7468H34.9383C34.6883 36.7468 34.4883 36.5468 34.4883 36.2968V19.2968C34.4883 19.0468 34.6883 18.8468 34.9383 18.8468H40.3132C40.5632 18.8468 40.7633 19.0468 40.7633 19.2968V36.3093C40.7633 36.5468 40.5632 36.7468 40.3132 36.7468ZM34.9383 19.0843C34.8258 19.0843 34.7383 19.1718 34.7383 19.2843V36.2968C34.7383 36.4093 34.8258 36.4968 34.9383 36.4968H40.3132C40.4257 36.4968 40.5133 36.4093 40.5133 36.2968V19.2968C40.5133 19.1843 40.4257 19.0968 40.3132 19.0968H34.9383V19.0843ZM39.9883 36.0968H35.2633C35.2008 36.0968 35.1383 36.0468 35.1383 35.9718V19.6218C35.1383 19.5593 35.1883 19.4968 35.2633 19.4968H39.9883C40.0508 19.4968 40.1133 19.5468 40.1133 19.6218V35.9718C40.1133 36.0468 40.0508 36.0968 39.9883 36.0968ZM35.3882 35.8468H39.8633V19.7343H35.3882V35.8468Z" fill="#ECF0F8"/>
<path d="M22.825 18.9594H17.45C17.275 18.9594 17.125 19.1094 17.125 19.2844V36.2968C17.125 36.4718 17.275 36.6219 17.45 36.6219H22.825C23 36.6219 23.15 36.4718 23.15 36.2968V19.2968C23.15 19.1093 23 18.9594 22.825 18.9594ZM22.5 35.9719H17.775V19.6218H22.5V35.9719Z" fill="#ECF0F8"/>
<path d="M22.825 36.7469H17.45C17.2 36.7469 17 36.5469 17 36.2969V19.2969C17 19.0469 17.2 18.8469 17.45 18.8469H22.825C23.075 18.8469 23.275 19.0469 23.275 19.2969V36.3094C23.275 36.5469 23.075 36.7469 22.825 36.7469ZM17.45 19.0844C17.3375 19.0844 17.25 19.1719 17.25 19.2844V36.2969C17.25 36.4094 17.3375 36.4969 17.45 36.4969H22.825C22.9375 36.4969 23.025 36.4094 23.025 36.2969V19.2969C23.025 19.1844 22.9375 19.0969 22.825 19.0969H17.45V19.0844ZM22.5 36.0969H17.775C17.7125 36.0969 17.65 36.0469 17.65 35.9719V19.6219C17.65 19.5594 17.7 19.4969 17.775 19.4969H22.5C22.5625 19.4969 22.625 19.5469 22.625 19.6219V35.9719C22.6125 36.0469 22.5625 36.0969 22.5 36.0969ZM17.9 35.8469H22.375V19.7344H17.9V35.8469Z" fill="#ECF0F8"/>
<path d="M28.475 22.1344C28.5375 22.1969 28.6126 22.2219 28.7001 22.2219C28.7126 22.2219 28.7251 22.2219 28.7376 22.2219C28.8376 22.2094 28.9251 22.1594 28.9751 22.0844L34.4125 14.2719L34.7876 16.3969C34.8126 16.5594 34.9501 16.6719 35.1126 16.6719C35.1376 16.6719 35.1501 16.6719 35.1751 16.6719C35.3501 16.6344 35.4751 16.4719 35.4376 16.2969L34.9126 13.3968C34.8751 13.2218 34.7125 13.0969 34.5375 13.1344L31.6501 13.6469C31.4751 13.6844 31.3501 13.8468 31.3876 14.0218C31.4251 14.1968 31.5875 14.3219 31.7625 14.2844L33.8751 13.9094L28.6626 21.3969L20.3125 13.3968C20.1875 13.2718 19.975 13.2719 19.85 13.4094C19.725 13.5344 19.7251 13.7469 19.8626 13.8719L28.475 22.1344Z" fill="#ECF0F8"/>
<path d="M28.699 22.3469C28.5865 22.3469 28.474 22.2969 28.3865 22.2219L19.749 13.9594C19.574 13.7844 19.5615 13.4969 19.7365 13.3219C19.9115 13.1469 20.199 13.1344 20.374 13.3094L28.624 21.2094L33.5865 14.0844L31.774 14.4094C31.524 14.4594 31.299 14.2844 31.249 14.0469C31.199 13.7969 31.374 13.5719 31.6115 13.5219L34.499 13.0094C34.6115 12.9844 34.7365 13.0094 34.8365 13.0844C34.9365 13.1469 34.999 13.2594 35.024 13.3719L35.549 16.2719C35.574 16.3844 35.549 16.5094 35.474 16.6094C35.4115 16.7094 35.299 16.7719 35.1865 16.7969C34.9365 16.8469 34.7115 16.6719 34.6615 16.4344L34.3365 14.5969L29.074 22.1594C28.999 22.2719 28.8865 22.3344 28.749 22.3469C28.724 22.3469 28.7115 22.3469 28.699 22.3469ZM28.549 22.0469C28.5865 22.0844 28.6365 22.1094 28.6865 22.1094C28.7615 22.0969 28.824 22.0719 28.849 22.0219L34.2865 14.2094C34.3115 14.1719 34.3615 14.1469 34.4115 14.1594C34.4615 14.1719 34.499 14.2094 34.5115 14.2594L34.8865 16.3844C34.9115 16.4969 35.0115 16.5719 35.124 16.5469C35.174 16.5344 35.224 16.5094 35.2615 16.4594C35.2865 16.4094 35.299 16.3594 35.299 16.3094L34.774 13.4094C34.7615 13.3594 34.7365 13.3094 34.6865 13.2719C34.6365 13.2469 34.5865 13.2344 34.5365 13.2344L31.649 13.7469C31.5365 13.7719 31.4615 13.8719 31.4865 13.9844C31.5115 14.0969 31.6115 14.1719 31.724 14.1469L33.8365 13.7719C33.8865 13.7594 33.9365 13.7844 33.9615 13.8219C33.9865 13.8594 33.9865 13.9219 33.9615 13.9594L28.749 21.4469C28.724 21.4719 28.699 21.4969 28.6615 21.4969C28.624 21.4969 28.5865 21.4844 28.5615 21.4594L20.2115 13.4594C20.124 13.3844 19.999 13.3844 19.924 13.4719C19.849 13.5594 19.849 13.6844 19.9365 13.7594L28.549 22.0469Z" fill="#ECF0F8"/>
</g>
<defs>
<filter id="filter0_d_3184_7131" x="3" y="0" width="58" height="58" filterUnits="userSpaceOnUse" color-interpolation-filters="sRGB">
<feFlood flood-opacity="0" result="BackgroundImageFix"/>
<feColorMatrix in="SourceAlpha" type="matrix" values="0 0 0 0 0 0 0 0 0 0 0 0 0 0 0 0 0 0 127 0" result="hardAlpha"/>
<feOffset dx="3" dy="4"/>
<feGaussianBlur stdDeviation="2"/>
<feComposite in2="hardAlpha" operator="out"/>
<feColorMatrix type="matrix" values="0 0 0 0 0.0462153 0 0 0 0 0.0900044 0 0 0 0 0.201667 0 0 0 0.23 0"/>
<feBlend mode="normal" in2="BackgroundImageFix" result="effect1_dropShadow_3184_7131"/>
<feBlend mode="normal" in="SourceGraphic" in2="effect1_dropShadow_3184_7131" result="shape"/>
</filter>
<filter id="filter1_d_3184_7131" x="0" y="0" width="58" height="58" filterUnits="userSpaceOnUse" color-interpolation-filters="sRGB">
<feFlood flood-opacity="0" result="BackgroundImageFix"/>
<feColorMatrix in="SourceAlpha" type="matrix" values="0 0 0 0 0 0 0 0 0 0 0 0 0 0 0 0 0 0 127 0" result="hardAlpha"/>
<feOffset dy="4"/>
<feGaussianBlur stdDeviation="2"/>
<feComposite in2="hardAlpha" operator="out"/>
<feColorMatrix type="matrix" values="0 0 0 0 0 0 0 0 0 0 0 0 0 0 0 0 0 0 0.25 0"/>
<feBlend mode="normal" in2="BackgroundImageFix" result="effect1_dropShadow_3184_7131"/>
<feBlend mode="normal" in="SourceGraphic" in2="effect1_dropShadow_3184_7131" result="shape"/>
</filter>
</defs>
</svg>
