<svg width="27" height="27" viewBox="0 0 27 27" fill="none" xmlns="http://www.w3.org/2000/svg">
<path fill-rule="evenodd" clip-rule="evenodd" d="M5.10352 13.2395C5.10352 12.9858 5.30913 12.7802 5.56277 12.7802H17.351C17.6047 12.7802 17.8103 12.9858 17.8103 13.2395C17.8103 13.4931 17.6047 13.6987 17.351 13.6987H5.56277C5.30913 13.6987 5.10352 13.4931 5.10352 13.2395Z" fill="white"/>
<path fill-rule="evenodd" clip-rule="evenodd" d="M5.10352 16.4305C5.10352 16.1768 5.30913 15.9712 5.56277 15.9712H15.9875C16.2411 15.9712 16.4467 16.1768 16.4467 16.4305C16.4467 16.6841 16.2411 16.8897 15.9875 16.8897H5.56277C5.30913 16.8897 5.10352 16.6841 5.10352 16.4305Z" fill="white"/>
<path fill-rule="evenodd" clip-rule="evenodd" d="M5.10352 19.6209C5.10352 19.3672 5.30913 19.1616 5.56277 19.1616H14.6616C14.9152 19.1616 15.1209 19.3672 15.1209 19.6209C15.1209 19.8745 14.9152 20.0801 14.6616 20.0801H5.56277C5.30913 20.0801 5.10352 19.8745 5.10352 19.6209Z" fill="white"/>
<path fill-rule="evenodd" clip-rule="evenodd" d="M2.29629 3.58783C1.93088 3.58783 1.58044 3.73299 1.32206 3.99137C1.06368 4.24975 0.918517 4.6002 0.918517 4.9656V8.66129H21.9947V4.9656C21.9947 4.6002 21.8496 4.24975 21.5912 3.99137C21.3328 3.73299 20.9823 3.58783 20.6169 3.58783H2.29629ZM0.672569 3.34188C1.10321 2.91124 1.68728 2.66931 2.29629 2.66931H20.6169C21.2259 2.66931 21.81 2.91124 22.2407 3.34188C22.6713 3.77252 22.9132 4.35659 22.9132 4.9656V9.12054C22.9132 9.37419 22.7076 9.5798 22.454 9.5798H0.459259C0.205617 9.5798 0 9.37419 0 9.12054V4.9656C0 4.35659 0.24193 3.77252 0.672569 3.34188Z" fill="white"/>
<path fill-rule="evenodd" clip-rule="evenodd" d="M2.29727 3.58783C2.11629 3.58783 1.93708 3.62349 1.76989 3.69276C1.60269 3.76204 1.45078 3.86357 1.32283 3.99157C1.19489 4.11957 1.09341 4.27153 1.02421 4.43875C0.955 4.60598 0.919418 4.7852 0.919494 4.96618L0.925924 20.445C0.925834 20.7662 0.989029 21.0846 1.1119 21.3813C1.23476 21.6781 1.4149 21.9477 1.642 22.1748C1.86911 22.4019 2.13874 22.582 2.43548 22.7049C2.73223 22.8278 3.05027 22.891 3.37145 22.8909H15.6303C15.8839 22.8909 16.0896 23.0965 16.0896 23.3501C16.0896 23.6038 15.8839 23.8094 15.6303 23.8094H3.37171C3.37166 23.8094 3.37175 23.8094 3.37171 23.8094C2.92991 23.8095 2.49229 23.7226 2.0841 23.5536C1.67587 23.3845 1.30494 23.1367 0.992512 22.8243C0.680084 22.5119 0.432276 22.1409 0.263248 21.7327C0.0942603 21.3246 0.00732527 20.8871 0.00740636 20.4454L0.000976763 4.96656C0.000850815 4.66493 0.0601536 4.36623 0.175497 4.08752C0.29084 3.80881 0.459963 3.55555 0.673207 3.34222C0.88645 3.12889 1.13963 2.95966 1.4183 2.8442C1.69696 2.72874 1.99564 2.66931 2.29727 2.66931H20.6176C21.2265 2.66931 21.8105 2.91117 22.2411 3.3417C22.6717 3.77222 22.9137 4.35616 22.9139 4.96508L22.9161 14.737C22.9161 14.9906 22.7106 15.1963 22.4569 15.1964C22.2033 15.1964 21.9976 14.9908 21.9976 14.7372L21.9953 4.96529C21.9953 4.59994 21.8501 4.24957 21.5917 3.99126C21.3333 3.73294 20.9829 3.58783 20.6176 3.58783H2.29727Z" fill="white"/>
<path fill-rule="evenodd" clip-rule="evenodd" d="M5.56277 0C5.81642 0 6.02203 0.205617 6.02203 0.459259V5.15013C6.02203 5.40377 5.81642 5.60939 5.56277 5.60939C5.30913 5.60939 5.10352 5.40377 5.10352 5.15013V0.459259C5.10352 0.205617 5.30913 0 5.56277 0Z" fill="white"/>
<path fill-rule="evenodd" clip-rule="evenodd" d="M17.3509 0C17.6045 0 17.8101 0.205617 17.8101 0.459259V5.15013C17.8101 5.40377 17.6045 5.60939 17.3509 5.60939C17.0972 5.60939 16.8916 5.40377 16.8916 5.15013V0.459259C16.8916 0.205617 17.0972 0 17.3509 0Z" fill="white"/>
<path fill-rule="evenodd" clip-rule="evenodd" d="M20.4128 14.8175C17.4825 14.8175 15.107 17.193 15.107 20.1233C15.107 23.0536 17.4825 25.4291 20.4128 25.4291C23.3431 25.4291 25.7186 23.0536 25.7186 20.1233C25.7186 17.193 23.3431 14.8175 20.4128 14.8175ZM14.1885 20.1233C14.1885 16.6857 16.9752 13.899 20.4128 13.899C23.8504 13.899 26.6371 16.6857 26.6371 20.1233C26.6371 23.5609 23.8504 26.3477 20.4128 26.3477C16.9752 26.3477 14.1885 23.5609 14.1885 20.1233Z" fill="white"/>
<path fill-rule="evenodd" clip-rule="evenodd" d="M20.4129 16.7717C20.6665 16.7717 20.8721 16.9773 20.8721 17.2309V21.0762L22.4865 22.6905C22.6658 22.8699 22.6658 23.1607 22.4865 23.34C22.3071 23.5194 22.0163 23.5194 21.837 23.34L20.0881 21.5912C20.002 21.505 19.9536 21.3882 19.9536 21.2664V17.2309C19.9536 16.9773 20.1592 16.7717 20.4129 16.7717Z" fill="white"/>
</svg>
