<svg width="19" height="18" viewBox="0 0 19 18" fill="none" xmlns="http://www.w3.org/2000/svg">
<g id="Group 692">
<path id="Vector" d="M8.78531 13.6957C8.97175 13.8783 9.22034 14 9.46893 14C9.71751 14 9.9661 13.8783 10.1525 13.6957L14.8136 8.88696C15.0621 8.64348 15.0621 8.27826 14.8136 8.03478C14.565 7.79131 14.1921 7.79131 13.9435 8.03478L10.0904 11.9913V0.608696C10.0904 0.243478 9.84181 0 9.46893 0C9.09605 0 8.84746 0.243478 8.84746 0.608696V11.9913L5.0565 8.03478C4.80791 7.79131 4.43503 7.79131 4.18644 8.03478C3.93785 8.27826 3.93785 8.64348 4.18644 8.88696L8.78531 13.6957Z" fill="#E84E1B"/>
<path id="Vector_2" d="M18.4698 13C18.1213 13 17.889 13.2532 17.889 13.6329V14.8987C17.889 15.9114 17.1339 16.7342 16.2046 16.7342H2.84597C1.91668 16.7342 1.16162 15.9114 1.16162 14.8987V13.6329C1.16162 13.2532 0.929298 13 0.580811 13C0.232325 13 0 13.2532 0 13.6329V14.8987C0 16.6076 1.27778 18 2.84597 18H16.1465C17.7147 18 18.9925 16.6076 18.9925 14.8987V13.6329C19.0506 13.2532 18.7602 13 18.4698 13Z" fill="#E84E1B"/>
</g>
</svg>
