<svg width="32" height="32" viewBox="0 0 32 32" fill="none" xmlns="http://www.w3.org/2000/svg">
<path d="M16 32C11.7262 32 7.70829 30.3357 4.68631 27.3137C1.66433 24.2917 0 20.2738 0 16C0 13.0278 0.80878 10.1612 2.34738 7.65236L0.668228 8.05047C0.458472 8.1001 0.24826 7.97054 0.198504 7.76085C0.148748 7.55109 0.278439 7.34081 0.488195 7.29106L3.10367 6.67089C3.31363 6.62107 3.52371 6.75083 3.57346 6.96052L4.19363 9.57606C4.24338 9.78582 4.11369 9.9961 3.90393 10.0459C3.69411 10.0956 3.4839 9.96592 3.43421 9.75623L3.02667 8.03759C1.55447 10.4291 0.780488 13.164 0.780488 16C0.780488 24.3921 7.60793 31.2195 16 31.2195C20.1745 31.2195 24.0686 29.5629 26.9647 26.5551C27.1142 26.3998 27.3614 26.3952 27.5164 26.5446C27.6717 26.6941 27.6764 26.9411 27.5269 27.0963C26.0498 28.6304 24.3148 29.8366 22.37 30.6816C20.3565 31.5564 18.2133 32 16 32ZM28.8062 25.3397C28.7344 25.3397 28.6635 25.3199 28.6014 25.2816C28.5134 25.2273 28.4505 25.1402 28.4266 25.0394L27.8064 22.4239C27.7567 22.2142 27.8864 22.0039 28.0961 21.9541C28.3057 21.9044 28.516 22.0341 28.5659 22.2438L28.9733 23.9623C30.4456 21.5709 31.2195 18.8363 31.2195 16C31.2195 7.60793 24.3921 0.780488 16 0.780488C11.8255 0.780488 7.93145 2.43707 5.03525 5.44501C4.88579 5.60033 4.6387 5.60501 4.48351 5.45548C4.32819 5.30595 4.32358 5.05893 4.47304 4.90374C5.95011 3.36969 7.68514 2.16338 9.62992 1.31844C11.6435 0.443577 13.7867 0 16 0C20.2738 0 24.2916 1.66433 27.3137 4.68631C30.3357 7.70836 32 11.7262 32 16C32 18.9724 31.1912 21.8388 29.6526 24.3477L31.3317 23.9496C31.5411 23.8995 31.7517 24.0295 31.8014 24.2392C31.8512 24.449 31.7215 24.6593 31.5118 24.709L28.8963 25.3292C28.8665 25.3362 28.8364 25.3397 28.8062 25.3397Z" fill="white"/>
<path d="M16 22.4C15.363 22.4 14.8448 21.8728 14.8448 21.2249V21.1148C14.2238 20.8695 13.6905 20.4323 13.3227 19.8616C13.1537 19.5988 13.0955 19.2852 13.1586 18.9782C13.2217 18.6711 13.3985 18.4075 13.6566 18.2358C14.1891 17.8815 14.9063 18.0337 15.2546 18.5756C15.4221 18.8355 15.6938 18.9848 15.9999 18.9848C16.4904 18.9848 16.8894 18.5789 16.8894 18.08C16.8894 17.5811 16.4905 17.1751 16 17.1751C14.2355 17.1751 12.8 15.7149 12.8 13.92C12.8 12.5724 13.6274 11.364 14.8448 10.8838V10.7751C14.8448 10.1271 15.363 9.59998 16 9.59998C16.637 9.59998 17.1552 10.1271 17.1552 10.7751V10.8852C17.7762 11.1305 18.3094 11.5677 18.6772 12.1384C18.6773 12.1386 18.6773 12.1386 18.6773 12.1387C18.8462 12.4012 18.9044 12.7148 18.8413 13.0218C18.7782 13.3288 18.6014 13.5924 18.3433 13.7642C18.0852 13.9358 17.7769 13.995 17.4751 13.9309C17.1733 13.8668 16.9141 13.6869 16.7454 13.4245C16.5779 13.1645 16.3061 13.0152 16.0001 13.0152C15.5095 13.0152 15.1105 13.4211 15.1105 13.92C15.1105 14.4189 15.5096 14.8248 16.0001 14.8248C17.7645 14.8248 19.2 16.285 19.2 18.0799C19.2 19.4275 18.3725 20.6359 17.1553 21.1161V21.2248C17.1552 21.8728 16.637 22.4 16 22.4ZM14.2878 18.8275C14.2139 18.8275 14.1415 18.8493 14.0782 18.8914C13.9923 18.9485 13.9334 19.0363 13.9125 19.1384C13.8915 19.2406 13.9109 19.3451 13.9671 19.4325C14.2874 19.9295 14.7735 20.2935 15.3357 20.4571C15.5009 20.5052 15.6149 20.6589 15.6149 20.8338V21.2249C15.6149 21.4409 15.7876 21.6166 16 21.6166C16.2124 21.6166 16.3851 21.4409 16.3851 21.2249V20.8347C16.3851 20.6596 16.4993 20.5058 16.6649 20.458C17.7041 20.1578 18.4298 19.18 18.4298 18.0799C18.4298 16.717 17.3398 15.6082 16 15.6082C15.0848 15.6082 14.3403 14.8509 14.3403 13.92C14.3403 12.9892 15.0849 12.2319 16 12.2319C16.5621 12.2319 17.0817 12.5173 17.3896 12.9953C17.4459 13.0829 17.5322 13.1428 17.6326 13.1642C17.7332 13.1855 17.8357 13.1658 17.9216 13.1086C18.0076 13.0514 18.0664 12.9637 18.0874 12.8615C18.1084 12.7594 18.0891 12.6552 18.033 12.5679C17.7125 12.0704 17.2264 11.7064 16.6642 11.5429C16.499 11.4948 16.385 11.3411 16.385 11.1662V10.7751C16.385 10.5591 16.2123 10.3834 15.9999 10.3834C15.7876 10.3834 15.6149 10.5591 15.6149 10.7751V11.1652C15.6149 11.3404 15.5006 11.4942 15.335 11.542C14.2959 11.8421 13.5701 12.8199 13.5701 13.92C13.5701 15.2829 14.6601 16.3917 16 16.3917C16.9152 16.3917 17.6596 17.1491 17.6596 18.0799C17.6596 19.0108 16.9151 19.7682 16 19.7682C15.4378 19.7682 14.9183 19.4827 14.6103 19.0047C14.554 18.9171 14.4677 18.8572 14.3673 18.8358C14.3408 18.8303 14.3142 18.8275 14.2878 18.8275Z" fill="white"/>
<path d="M15.9995 28.2666C9.23565 28.2666 3.73279 22.7638 3.73279 15.9999C3.73279 9.23612 9.23558 3.73328 15.9995 3.73328C22.7633 3.73328 28.2661 9.23612 28.2661 15.9999C28.2661 22.7638 22.7633 28.2666 15.9995 28.2666ZM15.9995 4.5073C9.66239 4.5073 4.50681 9.66286 4.50681 15.9999C4.50681 22.337 9.66239 27.4926 15.9995 27.4926C22.3365 27.4926 27.4921 22.337 27.4921 15.9999C27.4921 9.66286 22.3365 4.5073 15.9995 4.5073Z" fill="white"/>
</svg>
