<svg width="29" height="30" viewBox="0 0 29 30" fill="none" xmlns="http://www.w3.org/2000/svg">
<g id="Group 676">
<g id="Group 670">
<path id="Vector" d="M12.4185 29.3001H8.45759C8.34265 29.3001 8.23243 29.2564 8.15116 29.1786C8.06989 29.1008 8.02423 28.9953 8.02423 28.8852V20.5425C8.02423 20.4325 8.06989 20.327 8.15116 20.2492C8.23243 20.1714 8.34265 20.1277 8.45759 20.1277H12.4185C12.5334 20.1277 12.6436 20.1714 12.7249 20.2492C12.8062 20.327 12.8518 20.4325 12.8518 20.5425V28.8852C12.8518 28.9953 12.8062 29.1008 12.7249 29.1786C12.6436 29.2564 12.5334 29.3001 12.4185 29.3001ZM8.89094 28.4704H11.9851V20.9574H8.89094V28.4704Z" fill="white"/>
<path id="Vector_2" d="M4.69428 29.3001H0.733405C0.618472 29.3001 0.508246 29.2545 0.426976 29.1732C0.345706 29.0919 0.300049 28.9817 0.300049 28.8668V24.9059C0.300049 24.791 0.345706 24.6807 0.426976 24.5995C0.508246 24.5182 0.618472 24.4725 0.733405 24.4725H4.69428C4.80921 24.4725 4.91944 24.5182 5.00071 24.5995C5.08198 24.6807 5.12764 24.791 5.12764 24.9059V28.8668C5.12764 28.9817 5.08198 29.0919 5.00071 29.1732C4.91944 29.2545 4.80921 29.3001 4.69428 29.3001ZM1.16676 28.4334H4.26092V25.3392H1.16676V28.4334Z" fill="white"/>
<path id="Vector_3" d="M20.1425 29.3001H16.1816C16.0667 29.3001 15.9565 29.2555 15.8752 29.1762C15.7939 29.0968 15.7483 28.9892 15.7483 28.877V15.7232C15.7483 15.611 15.7939 15.5034 15.8752 15.424C15.9565 15.3447 16.0667 15.3001 16.1816 15.3001H20.1425C20.2575 15.3001 20.3677 15.3447 20.449 15.424C20.5302 15.5034 20.5759 15.611 20.5759 15.7232V28.877C20.5759 28.9892 20.5302 29.0968 20.449 29.1762C20.3677 29.2555 20.2575 29.3001 20.1425 29.3001ZM16.615 28.4539H19.7092V16.1463H16.615V28.4539Z" fill="white"/>
<path id="Vector_4" d="M27.8667 29.3001H23.9058C23.7909 29.3001 23.6807 29.2556 23.5994 29.1762C23.5181 29.0969 23.4725 28.9893 23.4725 28.8771V11.861C23.4725 11.7488 23.5181 11.6413 23.5994 11.5619C23.6807 11.4826 23.7909 11.438 23.9058 11.438H27.8667C27.9816 11.438 28.0919 11.4826 28.1731 11.5619C28.2544 11.6413 28.3001 11.7488 28.3001 11.861V28.8771C28.3001 28.9893 28.2544 29.0969 28.1731 29.1762C28.0919 29.2556 27.9816 29.3001 27.8667 29.3001ZM24.3392 28.4542H27.4333V12.284H24.3392V28.4542Z" fill="white"/>
<path id="Vector_5" d="M2.64859 20.1277C2.55833 20.1274 2.47055 20.0981 2.39836 20.044C2.32618 19.9899 2.27344 19.914 2.24802 19.8275C2.2226 19.741 2.22586 19.6487 2.25731 19.5642C2.28877 19.4797 2.34673 19.4077 2.42255 19.3588L21.8412 7.17379C21.8876 7.13991 21.9405 7.11594 21.9966 7.10336C22.0527 7.09078 22.1108 7.08987 22.1672 7.10069C22.2237 7.1115 22.2773 7.1338 22.3247 7.16621C22.3722 7.19861 22.4124 7.24042 22.443 7.28903C22.4735 7.33765 22.4937 7.39202 22.5023 7.44876C22.5108 7.5055 22.5076 7.5634 22.4928 7.61884C22.478 7.67428 22.4518 7.72608 22.4161 7.77101C22.3803 7.81594 22.3357 7.85303 22.2849 7.87998L2.87045 20.065C2.80383 20.1062 2.72697 20.1279 2.64859 20.1277Z" fill="white"/>
<path id="Vector_6" d="M21.3863 10.9553H21.2893C21.1809 10.9275 21.0872 10.8552 21.0287 10.7541C20.9702 10.653 20.9516 10.5314 20.977 10.4158L21.5804 7.6644L19.0021 7.02151C18.9446 7.012 18.8896 6.9899 18.8404 6.95662C18.7913 6.92334 18.7492 6.87959 18.7167 6.82813C18.6842 6.77666 18.6621 6.71859 18.6517 6.65756C18.6413 6.59654 18.6429 6.53388 18.6563 6.47353C18.6697 6.41319 18.6947 6.35645 18.7297 6.3069C18.7647 6.25734 18.809 6.21604 18.8597 6.18559C18.9104 6.15515 18.9665 6.13621 19.0244 6.12997C19.0823 6.12373 19.1408 6.13032 19.1963 6.14934L22.1796 6.89113C22.2337 6.90438 22.2847 6.92885 22.3299 6.96315C22.3751 6.99744 22.4134 7.04088 22.4428 7.09098C22.4722 7.14109 22.4921 7.19687 22.5012 7.25515C22.5103 7.31343 22.5086 7.37305 22.4961 7.43062L21.7998 10.6091C21.7779 10.7081 21.725 10.7963 21.6499 10.8592C21.5748 10.9221 21.4818 10.956 21.3863 10.9553Z" fill="white"/>
</g>
<g id="Group 675">
<path id="Vector_7" d="M11.2819 8.83583C11.3532 8.68607 11.4174 8.53274 11.4709 8.37942L13.0648 8.01928C13.2038 7.98719 13.3001 7.86596 13.3001 7.72689V5.58034C13.3001 5.43771 13.2038 5.31647 13.0648 5.28795L11.4709 4.92781C11.4174 4.77449 11.3532 4.62116 11.2819 4.46783L12.1555 3.08434C12.2304 2.96667 12.2126 2.80978 12.1127 2.70994L10.5937 1.19095C10.4939 1.09111 10.337 1.07328 10.2193 1.14816L8.83583 2.02176C8.68964 1.95044 8.53631 1.88983 8.37942 1.83277L8.01928 0.235337C7.98719 0.0962742 7.86596 0 7.72689 0H5.58034C5.43771 0 5.31647 0.0962742 5.28795 0.235337L4.92781 1.83277C4.77092 1.88983 4.61759 1.95401 4.4714 2.02176L3.0879 1.14816C2.97024 1.07328 2.81335 1.09111 2.71351 1.19095L1.19095 2.70637C1.09111 2.80621 1.07328 2.96311 1.14816 3.08077L2.02176 4.46427C1.95044 4.61403 1.88626 4.76735 1.83277 4.92425L0.235337 5.28438C0.0962742 5.31647 0 5.43771 0 5.57677V7.72333C0 7.86596 0.0962742 7.98719 0.235337 8.01572L1.83277 8.37585C1.88983 8.53274 1.95401 8.68607 2.02176 8.83226L1.14816 10.2158C1.07328 10.3334 1.09111 10.4903 1.19095 10.5902L2.70994 12.1092C2.80978 12.209 2.96667 12.2268 3.08434 12.1519L4.46783 11.2783C4.61403 11.3497 4.76735 11.4103 4.92425 11.4673L5.28438 13.0648C5.31647 13.2038 5.43771 13.3001 5.57677 13.3001H7.72333C7.86596 13.3001 7.98719 13.2038 8.01572 13.0648L8.37585 11.4673C8.53274 11.4103 8.68607 11.3461 8.83226 11.2783L10.2158 12.1519C10.3334 12.2268 10.4903 12.209 10.5902 12.1092L12.1092 10.5902C12.209 10.4903 12.2268 10.3334 12.1519 10.2158L11.2783 8.83226L11.2819 8.83583ZM10.3406 11.5172L9.01768 10.6829C8.92854 10.6258 8.81444 10.6223 8.71816 10.6686C8.50422 10.7791 8.27245 10.8754 8.03355 10.9539C7.93371 10.986 7.85526 11.0715 7.8303 11.1749L7.48443 12.7011H5.81924L5.47337 11.1749C5.44841 11.0715 5.37353 10.986 5.27012 10.9539C5.03122 10.8754 4.79945 10.7791 4.5855 10.6686C4.48923 10.6187 4.37513 10.6258 4.28598 10.6829L2.96311 11.5172L1.78642 10.3406L2.6208 9.01768C2.67785 8.92854 2.68141 8.81444 2.63506 8.71816C2.52096 8.50065 2.42468 8.26888 2.3498 8.02998C2.31771 7.93014 2.23213 7.85169 2.12873 7.82673L0.602605 7.48086V5.81567L2.12873 5.4698C2.23213 5.44484 2.31771 5.36996 2.3498 5.26655C2.42468 5.03122 2.52096 4.79945 2.63506 4.57837C2.68498 4.4821 2.67785 4.36799 2.6208 4.27885L1.78642 2.95597L2.96311 1.77929L4.28598 2.61367C4.37513 2.67072 4.48923 2.67428 4.5855 2.62793C4.79945 2.51739 5.03122 2.42112 5.27012 2.34267C5.36996 2.31058 5.44841 2.225 5.47337 2.1216L5.81924 0.595474H7.48443L7.8303 2.1216C7.85526 2.225 7.93014 2.31058 8.03355 2.34267C8.27245 2.42112 8.50422 2.51739 8.71816 2.62793C8.81444 2.67785 8.92854 2.67072 9.01768 2.61367L10.3406 1.77929L11.5172 2.95597L10.6829 4.27885C10.6258 4.36799 10.6223 4.4821 10.6686 4.57837C10.7863 4.80658 10.879 5.03835 10.9539 5.26655C10.986 5.36996 11.0715 5.44484 11.1749 5.4698L12.7011 5.81567V7.48086L11.1749 7.82673C11.0715 7.85169 10.986 7.92657 10.9539 8.02998C10.8825 8.25818 10.7863 8.48996 10.6686 8.71816C10.6187 8.81444 10.6258 8.92497 10.6829 9.01768L11.5172 10.3406L10.3406 11.5172Z" fill="white"/>
<path id="Vector_8" d="M6.65367 4.52838C6.48608 4.52838 6.35059 4.66388 6.35059 4.83147V6.65354C6.35059 6.74982 6.39694 6.83896 6.47182 6.89601L8.09065 8.10835C8.14414 8.14758 8.20832 8.16897 8.2725 8.16897C8.36521 8.16897 8.45435 8.12618 8.51497 8.04774C8.61481 7.91581 8.58629 7.72682 8.45435 7.62698L6.95676 6.50378V4.83503C6.95676 4.66744 6.82126 4.53195 6.65367 4.53195V4.52838Z" fill="white"/>
<path id="Vector_9" d="M9.89829 6.35051C9.73071 6.35051 9.59521 6.48601 9.59521 6.65359C9.59521 8.27599 8.27233 9.59887 6.64993 9.59887C5.02753 9.59887 3.70466 8.27599 3.70466 6.65359C3.70466 5.0312 5.02753 3.70832 6.64993 3.70832C7.96568 3.70832 9.13167 4.59261 9.48824 5.85488C9.53459 6.01533 9.69861 6.10804 9.85907 6.06169C10.0195 6.01533 10.1122 5.85131 10.0659 5.69085C9.638 4.16829 8.23311 3.10571 6.64993 3.10571C4.69236 3.10571 3.10205 4.69959 3.10205 6.65359C3.10205 8.6076 4.69592 10.2015 6.64993 10.2015C8.60394 10.2015 10.1978 8.61117 10.1978 6.65359C10.1978 6.48601 10.0623 6.35051 9.89473 6.35051H9.89829Z" fill="white"/>
</g>
</g>
</svg>
