<svg width="20" height="26" viewBox="0 0 20 26" fill="none" xmlns="http://www.w3.org/2000/svg">
<path d="M20 24.9201V6.39617C20 6.0639 19.9203 5.8147 19.6813 5.5655L14.6614 0.332268C14.4223 0.0830668 14.1833 0 13.8645 0H1.11554C0.478087 0 0 0.498402 0 1.16294V24.8371C0 25.5016 0.478087 26 1.11554 26H18.8845C19.5219 26 20 25.5016 20 24.8371V24.9201ZM18.6454 5.64856H14.9004C14.741 5.64856 14.5817 5.48243 14.5817 5.31629V1.41214L18.6454 5.64856ZM0.717131 24.9201V1.16294C0.717131 0.996805 0.876494 0.830671 1.03586 0.830671H13.7052V5.31629C13.7052 5.98083 14.1833 6.47923 14.8207 6.47923H19.1235V24.9201C19.1235 25.0863 18.9641 25.2524 18.8048 25.2524H1.11554C0.956175 25.2524 0.796813 25.0863 0.796813 24.9201H0.717131Z" fill="white"/>
<path fill-rule="evenodd" clip-rule="evenodd" d="M2.98828 19.0714C2.98828 18.8912 3.13531 18.7451 3.31669 18.7451H16.8909C17.0723 18.7451 17.2193 18.8912 17.2193 19.0714C17.2193 19.2516 17.0723 19.3977 16.8909 19.3977H3.31669C3.13531 19.3977 2.98828 19.2516 2.98828 19.0714Z" fill="white"/>
<path fill-rule="evenodd" clip-rule="evenodd" d="M2.98828 21.203C2.98828 21.0228 3.13531 20.8767 3.31669 20.8767H16.8909C17.0723 20.8767 17.2193 21.0228 17.2193 21.203C17.2193 21.3831 17.0723 21.5292 16.8909 21.5292H3.31669C3.13531 21.5292 2.98828 21.3831 2.98828 21.203Z" fill="white"/>
<path fill-rule="evenodd" clip-rule="evenodd" d="M2.98828 23.2911C2.98828 23.1109 3.13531 22.9648 3.31669 22.9648H11.0233C11.2047 22.9648 11.3517 23.1109 11.3517 23.2911C11.3517 23.4713 11.2047 23.6174 11.0233 23.6174H3.31669C3.13531 23.6174 2.98828 23.4713 2.98828 23.2911Z" fill="white"/>
<path fill-rule="evenodd" clip-rule="evenodd" d="M7.34136 6.0902C7.42789 5.93183 7.62726 5.87314 7.78667 5.95911L9.31924 6.78567C9.47864 6.87164 9.53771 7.06971 9.45118 7.22808L8.61921 8.75068C8.53268 8.90905 8.33331 8.96774 8.17391 8.88177C8.01451 8.7958 7.95543 8.59772 8.04197 8.43936L8.71725 7.2035L7.4733 6.53261C7.3139 6.44664 7.25483 6.24856 7.34136 6.0902Z" fill="white"/>
<path fill-rule="evenodd" clip-rule="evenodd" d="M9.48793 6.98368C9.51307 7.16214 9.38785 7.32706 9.20822 7.35204C7.17932 7.63424 5.63777 9.3685 5.63777 11.4227C5.63777 13.5185 7.17732 15.2109 9.20822 15.4934C9.38785 15.5184 9.51307 15.6833 9.48793 15.8618C9.46278 16.0402 9.29678 16.1646 9.11716 16.1396C6.76928 15.8131 4.98096 13.8513 4.98096 11.4227C4.98096 9.03964 6.76728 7.03264 9.11716 6.7058C9.29678 6.68081 9.46278 6.80523 9.48793 6.98368Z" fill="white"/>
<path fill-rule="evenodd" clip-rule="evenodd" d="M10.0633 7.0272C10.0884 6.84875 10.2544 6.72433 10.434 6.74932C12.7819 7.07588 14.5702 9.03767 14.5702 11.4662C14.5702 13.8493 12.7839 15.8563 10.434 16.1832C10.2544 16.2081 10.0884 16.0837 10.0633 15.9053C10.0381 15.7268 10.1634 15.5619 10.343 15.5369C12.3719 15.2547 13.9134 13.5205 13.9134 11.4662C13.9134 9.3705 12.3739 7.67804 10.343 7.39556C10.1634 7.37057 10.0381 7.20565 10.0633 7.0272Z" fill="white"/>
<path fill-rule="evenodd" clip-rule="evenodd" d="M11.1717 13.9492C11.3391 14.0185 11.4183 14.2096 11.3485 14.3759L10.8151 15.6478L12.0983 16.2144C12.264 16.2876 12.3387 16.4804 12.265 16.6451C12.1913 16.8097 11.9973 16.8839 11.8315 16.8107L10.2552 16.1147C10.0922 16.0427 10.0168 15.8546 10.0854 15.691L10.7422 14.1249C10.812 13.9586 11.0042 13.8799 11.1717 13.9492Z" fill="white"/>
<path fill-rule="evenodd" clip-rule="evenodd" d="M9.77547 9.70436C9.3876 9.70436 9.09676 9.99332 9.09676 10.3787C9.09676 10.764 9.3876 11.053 9.77547 11.053C9.95684 11.053 10.1039 11.199 10.1039 11.3792C10.1039 11.5594 9.95684 11.7055 9.77547 11.7055C9.02485 11.7055 8.43994 11.1244 8.43994 10.3787C8.43994 9.63293 9.02485 9.05182 9.77547 9.05182C10.3001 9.05182 10.7009 9.34246 10.9245 9.67564C11.0251 9.82557 10.9843 10.0281 10.8334 10.1281C10.6825 10.2281 10.4786 10.1875 10.378 10.0376C10.2512 9.84875 10.039 9.70436 9.77547 9.70436Z" fill="white"/>
<path fill-rule="evenodd" clip-rule="evenodd" d="M9.44708 11.3793C9.44708 11.1991 9.59411 11.053 9.77549 11.053C10.5261 11.053 11.111 11.6341 11.111 12.3798C11.111 13.1256 10.5261 13.7067 9.77549 13.7067C9.25085 13.7067 8.85006 13.416 8.62648 13.0828C8.52587 12.9329 8.56665 12.7303 8.71756 12.6304C8.86848 12.5304 9.07238 12.5709 9.17298 12.7209C9.29971 12.9097 9.51195 13.0541 9.77549 13.0541C10.1634 13.0541 10.4542 12.7652 10.4542 12.3798C10.4542 11.9945 10.1634 11.7055 9.77549 11.7055C9.59411 11.7055 9.44708 11.5594 9.44708 11.3793Z" fill="white"/>
<path fill-rule="evenodd" clip-rule="evenodd" d="M9.77549 8.52982C9.95687 8.52982 10.1039 8.67589 10.1039 8.85609V9.33462C10.1039 9.51482 9.95687 9.66089 9.77549 9.66089C9.59412 9.66089 9.44708 9.51482 9.44708 9.33462V8.85609C9.44708 8.67589 9.59412 8.52982 9.77549 8.52982Z" fill="white"/>
<path fill-rule="evenodd" clip-rule="evenodd" d="M9.77567 13.0541C9.95705 13.0541 10.1041 13.2002 10.1041 13.3804V13.9024C10.1041 14.0826 9.95705 14.2287 9.77567 14.2287C9.5943 14.2287 9.44727 14.0826 9.44727 13.9024V13.3804C9.44727 13.2002 9.5943 13.0541 9.77567 13.0541Z" fill="white"/>
</svg>
