<svg width="21" height="25" viewBox="0 0 21 25" fill="none" xmlns="http://www.w3.org/2000/svg">
<g id="Group 671">
<g id="Group 673">
<g id="Group">
<path id="Vector" d="M9.86371 9.13438C9.92621 9.19688 10.0012 9.22189 10.0887 9.22189C10.1012 9.22189 10.1137 9.22189 10.1262 9.22189C10.2262 9.20939 10.3137 9.15937 10.3637 9.08437L15.8012 1.27187L16.1762 3.39688C16.2012 3.55938 16.3387 3.67188 16.5012 3.67188C16.5262 3.67188 16.5387 3.67188 16.5637 3.67188C16.7387 3.63438 16.8637 3.47186 16.8262 3.29686L16.3012 0.39685C16.2637 0.22185 16.1012 0.0968604 15.9262 0.13436L13.0387 0.646865C12.8637 0.684365 12.7387 0.84685 12.7762 1.02185C12.8137 1.19685 12.9762 1.32188 13.1512 1.28438L15.2637 0.909354L10.0512 8.39688L1.70122 0.39685C1.57622 0.27185 1.36372 0.271862 1.23872 0.409362C1.11372 0.534362 1.11373 0.746856 1.25123 0.871856L9.86371 9.13438Z" fill="#ECF0F8"/>
<path id="Vector_2" d="M10.0877 9.34688C9.97518 9.34688 9.86268 9.29691 9.77518 9.22191L1.13767 0.959388C0.962674 0.784388 0.950161 0.496875 1.12516 0.321875C1.30016 0.146875 1.58767 0.134401 1.76267 0.309401L10.0127 8.20937L14.9752 1.0844L13.1627 1.40941C12.9127 1.45941 12.6877 1.2844 12.6377 1.0469C12.5877 0.796897 12.7627 0.57188 13.0002 0.52188L15.8877 0.00937548C16.0002 -0.0156245 16.1252 0.00937243 16.2252 0.0843724C16.3252 0.146872 16.3877 0.259386 16.4127 0.371886L16.9377 3.2719C16.9627 3.3844 16.9377 3.50938 16.8627 3.60938C16.8002 3.70938 16.6877 3.77187 16.5752 3.79687C16.3252 3.84687 16.1002 3.6719 16.0502 3.4344L15.7252 1.5969L10.4627 9.15938C10.3877 9.27188 10.2752 9.33438 10.1377 9.34688C10.1127 9.34688 10.1002 9.34688 10.0877 9.34688ZM9.93768 9.04689C9.97518 9.08439 10.0252 9.10937 10.0752 9.10937C10.1502 9.09687 10.2127 9.0719 10.2377 9.0219L15.6752 1.2094C15.7002 1.1719 15.7501 1.14689 15.8001 1.15939C15.8501 1.17189 15.8877 1.20938 15.9002 1.25938L16.2752 3.38439C16.3002 3.49689 16.4002 3.5719 16.5127 3.5469C16.5627 3.5344 16.6127 3.50939 16.6502 3.45939C16.6752 3.40939 16.6877 3.35939 16.6877 3.30939L16.1627 0.409385C16.1502 0.359385 16.1252 0.309403 16.0752 0.271903C16.0252 0.246903 15.9752 0.234404 15.9252 0.234404L13.0377 0.746871C12.9252 0.771871 12.8502 0.871874 12.8752 0.984374C12.9002 1.09687 13.0002 1.17188 13.1127 1.14688L15.2252 0.771895C15.2752 0.759395 15.3252 0.784406 15.3502 0.821906C15.3752 0.859406 15.3752 0.921888 15.3502 0.959388L10.1377 8.44688C10.1127 8.47188 10.0877 8.49689 10.0502 8.49689C10.0127 8.49689 9.97516 8.48439 9.95016 8.45939L1.60017 0.459395C1.51267 0.384395 1.38765 0.384408 1.31265 0.471908C1.23765 0.559408 1.23767 0.684383 1.32517 0.759383L9.93768 9.04689Z" fill="#ECF0F8"/>
</g>
<path id="Vector_3" d="M12.3942 24.8621H8.43336C8.31842 24.8621 8.2082 24.8175 8.12693 24.7381C8.04566 24.6588 8 24.5512 8 24.439V11.2851C8 11.1729 8.04566 11.0653 8.12693 10.986C8.2082 10.9066 8.31842 10.8621 8.43336 10.8621H12.3942C12.5092 10.8621 12.6194 10.9066 12.7007 10.986C12.7819 11.0653 12.8276 11.1729 12.8276 11.2851V24.439C12.8276 24.5512 12.7819 24.6588 12.7007 24.7381C12.6194 24.8175 12.5092 24.8621 12.3942 24.8621ZM8.86671 24.0159H11.9609V11.7082H8.86671V24.0159Z" fill="white"/>
<path id="Vector_4" d="M20.1185 24.8621H16.1576C16.0427 24.8621 15.9324 24.8175 15.8512 24.7382C15.7699 24.6589 15.7242 24.5513 15.7242 24.4391V7.42297C15.7242 7.31079 15.7699 7.20321 15.8512 7.12389C15.9324 7.04456 16.0427 7 16.1576 7H20.1185C20.2334 7 20.3436 7.04456 20.4249 7.12389C20.5062 7.20321 20.5518 7.31079 20.5518 7.42297V24.4391C20.5518 24.5513 20.5062 24.6589 20.4249 24.7382C20.3436 24.8175 20.2334 24.8621 20.1185 24.8621ZM16.591 24.0161H19.6851V7.84594H16.591V24.0161Z" fill="white"/>
<path id="Vector_5" d="M4.39423 24.8621H0.433356C0.318423 24.8621 0.208197 24.8175 0.126927 24.7382C0.0456567 24.6589 0 24.5513 0 24.4391V7.42297C0 7.31079 0.0456567 7.20321 0.126927 7.12389C0.208197 7.04456 0.318423 7 0.433356 7H4.39423C4.50916 7 4.61939 7.04456 4.70066 7.12389C4.78193 7.20321 4.82759 7.31079 4.82759 7.42297V24.4391C4.82759 24.5513 4.78193 24.6589 4.70066 24.7382C4.61939 24.8175 4.50916 24.8621 4.39423 24.8621ZM0.866712 24.0161H3.96087V7.84594H0.866712V24.0161Z" fill="white"/>
</g>
</g>
</svg>
