<svg width="14" height="14" viewBox="0 0 14 14" fill="none" xmlns="http://www.w3.org/2000/svg">
<path d="M13.5714 1.51183H10.9166C10.7248 0.644257 10.0343 0 9.21386 0C8.39349 0 7.70298 0.644226 7.51116 1.51183H0.428559C0.191898 1.51183 0 1.73038 0 1.99998C0 2.26959 0.191898 2.48817 0.428559 2.48817H7.51119C7.70298 3.35574 8.39352 4 9.21389 4C10.0343 4 10.7248 3.35577 10.9166 2.48817H13.5714C13.8081 2.48817 14 2.26959 14 2.00002C14 1.73045 13.8081 1.51183 13.5714 1.51183ZM9.21386 3.02366C8.71831 3.02366 8.31521 2.56445 8.31521 2.00002C8.31521 1.43556 8.71834 0.976368 9.21386 0.976368C9.70941 0.976368 10.1125 1.43556 10.1125 2.00002C10.1125 2.56445 9.70941 3.02366 9.21386 3.02366Z" fill="white"/>
<path d="M13.5714 11.5118H10.9166C10.7248 10.6443 10.0343 10 9.21386 10C8.39349 10 7.70298 10.6442 7.51116 11.5118H0.428559C0.191898 11.5118 0 11.7304 0 12C0 12.2696 0.191898 12.4882 0.428559 12.4882H7.51119C7.70298 13.3557 8.39352 14 9.21389 14C10.0343 14 10.7248 13.3558 10.9166 12.4882H13.5714C13.8081 12.4882 14 12.2696 14 12C14 11.7304 13.8081 11.5118 13.5714 11.5118ZM9.21386 13.0237C8.71831 13.0237 8.31521 12.5645 8.31521 12C8.31521 11.4356 8.71831 10.9764 9.21386 10.9764C9.70941 10.9764 10.1125 11.4356 10.1125 12C10.1125 12.5645 9.70941 13.0237 9.21386 13.0237Z" fill="white"/>
<path d="M13.5714 6.51184H6.48881C6.29702 5.64426 5.60651 5 4.78611 5C3.96575 5 3.27521 5.64423 3.08339 6.51184H0.428559C0.191898 6.51184 0 6.7304 0 7C0 7.2696 0.191898 7.48816 0.428559 7.48816H3.08342C3.27521 8.35574 3.96577 9 4.78614 9C5.60651 9 6.29702 8.35577 6.48884 7.48816H13.5714C13.8081 7.48816 14 7.26957 14 7C14 6.7304 13.8081 6.51184 13.5714 6.51184ZM4.78614 8.02366C4.29059 8.02366 3.88746 7.56443 3.88746 7C3.88746 6.43553 4.29062 5.97634 4.78614 5.97634C5.28169 5.97634 5.68479 6.43557 5.68479 7C5.68479 7.56446 5.28166 8.02366 4.78614 8.02366Z" fill="white"/>
</svg>
