<svg width="21" height="26" viewBox="0 0 21 26" fill="none" xmlns="http://www.w3.org/2000/svg">
<g id="Group 674">
<g id="Group 667">
<path id="Vector" d="M20.0769 24.209V6.21365C20.0769 5.89086 19.9969 5.64877 19.757 5.40668L14.7177 0.322786C14.4778 0.0806964 14.2378 0 13.9179 0H1.11983C0.479926 0 0 0.48418 0 1.12975V24.1283C0 24.7739 0.479926 25.2581 1.11983 25.2581H18.9571C19.597 25.2581 20.0769 24.7739 20.0769 24.1283V24.209ZM18.7171 5.48738H14.9577C14.7977 5.48738 14.6378 5.32598 14.6378 5.16459V1.37184L18.7171 5.48738ZM0.719889 24.209V1.12975C0.719889 0.96836 0.879865 0.806967 1.03984 0.806967H13.7579V5.16459C13.7579 5.81016 14.2378 6.29434 14.8777 6.29434H19.1971V24.209C19.1971 24.3704 19.0371 24.5318 18.8771 24.5318H1.11983C0.959853 24.5318 0.799877 24.3704 0.799877 24.209H0.719889Z" fill="white"/>
</g>
<g id="Group 672">
<path id="Vector_2" d="M11.1102 23.138H8.51837C8.44316 23.138 8.37104 23.1127 8.31786 23.0676C8.26468 23.0226 8.2348 22.9615 8.2348 22.8978V15.4321C8.2348 15.3685 8.26468 15.3074 8.31786 15.2623C8.37104 15.2173 8.44316 15.192 8.51837 15.192H11.1102C11.1854 15.192 11.2575 15.2173 11.3107 15.2623C11.3639 15.3074 11.3938 15.3685 11.3938 15.4321V22.8978C11.3938 22.9615 11.3639 23.0226 11.3107 23.0676C11.2575 23.1127 11.1854 23.138 11.1102 23.138ZM8.80194 22.6577H10.8266V15.6723H8.80194V22.6577Z" fill="white"/>
<path id="Vector_3" d="M16.1646 23.1379H13.5728C13.4976 23.1379 13.4255 23.1126 13.3723 23.0676C13.3191 23.0226 13.2892 22.9615 13.2892 22.8979V13.2401C13.2892 13.1764 13.3191 13.1153 13.3723 13.0703C13.4255 13.0253 13.4976 13 13.5728 13H16.1646C16.2398 13 16.312 13.0253 16.3651 13.0703C16.4183 13.1153 16.4482 13.1764 16.4482 13.2401V22.8979C16.4482 22.9615 16.4183 23.0226 16.3651 23.0676C16.312 23.1126 16.2398 23.1379 16.1646 23.1379ZM13.8564 22.6578H15.8811V13.4801H13.8564V22.6578Z" fill="white"/>
<path id="Vector_4" d="M5.87538 23.1379H3.28357C3.20836 23.1379 3.13623 23.1126 3.08305 23.0676C3.02988 23.0226 3 22.9615 3 22.8979V13.2401C3 13.1764 3.02988 13.1153 3.08305 13.0703C3.13623 13.0253 3.20836 13 3.28357 13H5.87538C5.95059 13 6.02272 13.0253 6.07589 13.0703C6.12907 13.1153 6.15895 13.1764 6.15895 13.2401V22.8979C6.15895 22.9615 6.12907 23.0226 6.07589 23.0676C6.02272 23.1126 5.95059 23.1379 5.87538 23.1379ZM3.56714 22.6578H5.59181V13.4801H3.56714V22.6578Z" fill="white"/>
</g>
</g>
</svg>
