<svg width="10" height="12" viewBox="0 0 10 12" fill="none" xmlns="http://www.w3.org/2000/svg">
<g id="Group">
<g id="Group_2">
<path id="Vector" d="M0.519966 10.9529L0.519967 0.243693C0.519967 0.162032 0.579162 0.0920407 0.648217 0.0920407L5.19597 0.092041C5.26502 0.092041 5.32422 0.162032 5.32422 0.243693C5.32422 0.325353 5.26502 0.395354 5.19597 0.395354L0.781404 0.395353L0.781403 10.8012L5.19597 10.8012C5.26502 10.8012 5.32422 10.8712 5.32422 10.9529C5.32422 11.0345 5.26502 11.1045 5.19597 11.1045L0.648216 11.1045C0.574229 11.1104 0.519966 11.0404 0.519966 10.9529Z" fill="#8B9EB2"/>
<path id="Vector_2" d="M0.472091 10.9532L0.472092 0.244042C0.472092 0.127384 0.551004 0.0340574 0.649654 0.0340574L5.19741 0.0340576C5.29606 0.0340576 5.375 0.127384 5.375 0.244042C5.375 0.3607 5.29606 0.454026 5.19741 0.454026L0.832155 0.454026L0.832154 10.7432L5.19741 10.7432C5.29606 10.7432 5.375 10.8366 5.375 10.9532C5.375 11.0699 5.29606 11.1632 5.19741 11.1632L0.649654 11.1632C0.551004 11.169 0.472091 11.0699 0.472091 10.9532ZM5.27634 0.244042C5.27634 0.191546 5.2418 0.150722 5.19741 0.150722L0.649654 0.150722C0.605262 0.150722 0.570717 0.191546 0.570717 0.244042L0.570717 10.9532C0.570717 11.0057 0.605261 11.0466 0.649654 11.0466L5.19741 11.0466C5.2418 11.0466 5.27634 11.0057 5.27634 10.9532C5.27634 10.9007 5.2418 10.8599 5.19741 10.8599L0.782841 10.8599C0.758179 10.8599 0.733498 10.8366 0.733498 10.8016L0.733499 0.395702C0.733499 0.366538 0.753247 0.33737 0.782842 0.33737L5.19741 0.33737C5.23687 0.343203 5.27634 0.296538 5.27634 0.244042Z" fill="#8B9EB2"/>
</g>
<g id="Group_3">
<g id="Group_4">
<path id="Vector_3" d="M2.51986 5.59844C2.51986 5.51678 2.57905 5.44678 2.64811 5.44678L9.62761 5.44678C9.69666 5.44678 9.75586 5.51678 9.75586 5.59844C9.75586 5.6801 9.69666 5.75009 9.62761 5.75009L2.64811 5.75009C2.57905 5.75592 2.51986 5.68593 2.51986 5.59844Z" fill="#8B9EB2"/>
<path id="Vector_4" d="M2.47006 5.59878C2.47006 5.48212 2.54897 5.38879 2.64762 5.38879L9.62712 5.38879C9.72577 5.38879 9.80469 5.48212 9.80469 5.59878C9.80469 5.71544 9.72577 5.80876 9.62712 5.80876L2.64762 5.80876C2.54897 5.80876 2.47006 5.71544 2.47006 5.59878ZM9.71097 5.59878C9.71097 5.54628 9.67645 5.50545 9.63206 5.50545L2.65256 5.50545C2.60817 5.50545 2.57365 5.54628 2.57365 5.59878C2.57365 5.65127 2.60817 5.69211 2.65256 5.69211L9.63206 5.69211C9.67152 5.69794 9.71097 5.65127 9.71097 5.59878Z" fill="#8B9EB2"/>
</g>
<g id="Group_5">
<path id="Vector_5" d="M8.3554 6.73622C8.3554 6.68955 8.37512 6.64289 8.40965 6.61372L9.60824 5.60464L8.40965 4.59555C8.35046 4.54889 8.33566 4.44973 8.38005 4.37973C8.41951 4.30974 8.50336 4.29223 8.56255 4.34473L9.90915 5.47631C9.9782 5.53464 9.9782 5.6688 9.90915 5.72713L8.56255 6.85871C8.50336 6.90537 8.42444 6.8937 8.38005 6.82371C8.36032 6.79454 8.3554 6.76538 8.3554 6.73622Z" fill="#8B9EB2"/>
<path id="Vector_6" d="M8.30569 4.46742C8.30569 4.42659 8.31553 4.37993 8.34019 4.34493C8.36979 4.29826 8.40927 4.2691 8.45366 4.25744C8.49805 4.24577 8.54736 4.26327 8.58682 4.29243L9.93341 5.42402C10.0222 5.49984 10.0222 5.69233 9.93341 5.76815L8.58682 6.89974C8.54736 6.93473 8.50299 6.9464 8.45366 6.93473C8.40927 6.92307 8.36485 6.8939 8.34019 6.84724C8.28593 6.75392 8.30567 6.61976 8.37966 6.5556L9.51907 5.59317L8.37966 4.63074C8.3402 4.59575 8.31556 4.54908 8.30569 4.49659C8.30569 4.49076 8.30569 4.47909 8.30569 4.46742ZM9.90382 5.599C9.90382 5.56401 9.89395 5.53484 9.87422 5.52317L8.52763 4.39159C8.5079 4.37409 8.48817 4.36826 8.46844 4.37409C8.44871 4.37993 8.42899 4.3916 8.41419 4.41493C8.39939 4.43826 8.39448 4.46159 8.39941 4.48492C8.40434 4.50825 8.41418 4.53158 8.43391 4.54908L9.63254 5.55817C9.6572 5.5815 9.6572 5.62817 9.63254 5.6515L8.43391 6.66058C8.39938 6.68975 8.38953 6.75392 8.41419 6.79475C8.42899 6.81808 8.44378 6.82974 8.46844 6.83557C8.48817 6.84141 8.51283 6.83557 8.52763 6.81808L9.87422 5.68649C9.89395 5.66316 9.90382 5.634 9.90382 5.599Z" fill="#8B9EB2"/>
</g>
</g>
</g>
</svg>
