<svg width="10" height="12" viewBox="0 0 10 12" fill="none" xmlns="http://www.w3.org/2000/svg">
<path d="M0.520821 10.9529L0.520821 0.243693C0.520821 0.162032 0.580016 0.0920407 0.649071 0.0920407L5.19682 0.092041C5.26588 0.092041 5.32507 0.162032 5.32507 0.243693C5.32507 0.325353 5.26588 0.395354 5.19682 0.395354L0.782258 0.395353L0.782258 10.8012L5.19682 10.8012C5.26588 10.8012 5.32507 10.8712 5.32507 10.9529C5.32507 11.0345 5.26588 11.1045 5.19682 11.1045L0.649071 11.1045C0.575083 11.1104 0.520821 11.0404 0.520821 10.9529Z" fill="#A3A3A3"/>
<path d="M0.472518 10.9532L0.472519 0.244042C0.472519 0.127384 0.551432 0.0340574 0.650082 0.0340574L5.19783 0.0340576C5.29648 0.0340576 5.37543 0.127384 5.37543 0.244042C5.37543 0.3607 5.29648 0.454026 5.19783 0.454026L0.832582 0.454026L0.832581 10.7432L5.19783 10.7432C5.29648 10.7432 5.37543 10.8366 5.37543 10.9532C5.37543 11.0699 5.29648 11.1632 5.19783 11.1632L0.650081 11.1632C0.551431 11.169 0.472518 11.0699 0.472518 10.9532ZM5.27677 0.244042C5.27677 0.191546 5.24223 0.150722 5.19783 0.150722L0.650082 0.150722C0.605689 0.150722 0.571145 0.191546 0.571145 0.244042L0.571144 10.9532C0.571144 11.0057 0.605689 11.0466 0.650081 11.0466L5.19783 11.0466C5.24223 11.0466 5.27677 11.0057 5.27677 10.9532C5.27677 10.9007 5.24223 10.8599 5.19783 10.8599L0.783268 10.8599C0.758606 10.8599 0.733925 10.8366 0.733925 10.8016L0.733926 0.395702C0.733926 0.366538 0.753674 0.33737 0.783269 0.33737L5.19783 0.33737C5.23729 0.343203 5.27677 0.296538 5.27677 0.244042Z" fill="#A3A3A3"/>
<path d="M2.5198 5.59844C2.5198 5.51678 2.57899 5.44678 2.64805 5.44678L9.62755 5.44678C9.6966 5.44678 9.7558 5.51678 9.7558 5.59844C9.7558 5.6801 9.6966 5.75009 9.62755 5.75009L2.64805 5.75009C2.57899 5.75592 2.5198 5.68593 2.5198 5.59844Z" fill="#A3A3A3"/>
<path d="M2.46957 5.59878C2.46957 5.48212 2.54848 5.38879 2.64713 5.38879L9.62664 5.38879C9.72529 5.38879 9.8042 5.48212 9.8042 5.59878C9.8042 5.71544 9.72529 5.80876 9.62664 5.80876L2.64713 5.80876C2.54848 5.80876 2.46957 5.71544 2.46957 5.59878ZM9.71048 5.59878C9.71048 5.54628 9.67597 5.50545 9.63157 5.50545L2.65207 5.50545C2.60768 5.50545 2.57316 5.54628 2.57316 5.59878C2.57316 5.65127 2.60768 5.69211 2.65207 5.69211L9.63157 5.69211C9.67103 5.69794 9.71048 5.65127 9.71048 5.59878Z" fill="#A3A3A3"/>
<path d="M8.35576 6.73622C8.35576 6.68955 8.37548 6.64289 8.41001 6.61372L9.60861 5.60464L8.41001 4.59555C8.35082 4.54889 8.33603 4.44973 8.38042 4.37973C8.41988 4.30974 8.50373 4.29223 8.56292 4.34473L9.90951 5.47631C9.97857 5.53464 9.97857 5.6688 9.90951 5.72713L8.56292 6.85871C8.50373 6.90537 8.42481 6.8937 8.38042 6.82371C8.36069 6.79454 8.35576 6.76538 8.35576 6.73622Z" fill="#A3A3A3"/>
<path d="M8.30569 4.46742C8.30569 4.42659 8.31553 4.37993 8.34019 4.34493C8.36979 4.29826 8.40927 4.2691 8.45366 4.25744C8.49805 4.24577 8.54736 4.26327 8.58682 4.29243L9.93341 5.42402C10.0222 5.49984 10.0222 5.69233 9.93341 5.76815L8.58682 6.89974C8.54736 6.93473 8.50299 6.9464 8.45366 6.93473C8.40927 6.92307 8.36485 6.8939 8.34019 6.84724C8.28593 6.75392 8.30567 6.61976 8.37966 6.5556L9.51907 5.59317L8.37966 4.63074C8.3402 4.59575 8.31556 4.54908 8.30569 4.49659C8.30569 4.49076 8.30569 4.47909 8.30569 4.46742ZM9.90382 5.599C9.90382 5.56401 9.89395 5.53484 9.87422 5.52317L8.52763 4.39159C8.5079 4.37409 8.48817 4.36826 8.46844 4.37409C8.44871 4.37993 8.42899 4.3916 8.41419 4.41493C8.39939 4.43826 8.39448 4.46159 8.39941 4.48492C8.40434 4.50825 8.41418 4.53158 8.43391 4.54908L9.63254 5.55817C9.6572 5.5815 9.6572 5.62817 9.63254 5.6515L8.43391 6.66058C8.39938 6.68975 8.38953 6.75392 8.41419 6.79475C8.42899 6.81808 8.44378 6.82974 8.46844 6.83557C8.48817 6.84141 8.51283 6.83557 8.52763 6.81808L9.87422 5.68649C9.89395 5.66316 9.90382 5.634 9.90382 5.599Z" fill="#A3A3A3"/>
</svg>
