<svg width="159" height="29" viewBox="0 0 159 29" fill="none" xmlns="http://www.w3.org/2000/svg">
<g clip-path="url(#clip0_3343_2836)">
<path d="M122.695 5.11327C120.655 5.08355 120.494 5.24705 120.508 7.29831C120.508 9.51307 120.508 11.7278 120.508 14.2101C119.144 12.0548 117.676 10.2563 116.781 8.20502C115.68 5.69298 114.066 4.78626 111.454 5.08355C109.972 5.26192 109.649 5.41056 109.649 6.9267C109.649 11.386 109.649 15.8452 109.664 20.3045C109.678 23.3962 109.209 23.4705 112.819 23.4259C114.477 23.3962 114.653 23.2178 114.653 21.5828C114.653 19.0113 114.653 16.4546 114.653 13.6602C114.888 13.9723 114.991 14.0912 115.079 14.2399C116.355 16.3803 117.617 18.5356 118.894 20.6761C120.582 23.5003 120.596 23.5003 123.913 23.4408C125.483 23.4111 125.659 23.2327 125.659 21.6125C125.659 17.1235 125.644 12.6197 125.644 8.1307C125.644 5.15787 125.644 5.15787 122.695 5.11327Z" fill="white"/>
<path d="M87.6665 17.1681C87.4464 16.7519 87.1822 16.3952 87.7252 15.9641C89.809 14.2845 90.4547 12.0548 89.7649 9.51307C89.0752 7.00102 86.8887 5.32137 84.1299 5.18759C81.7232 5.06868 79.3019 5.143 76.8806 5.143C76.0001 5.143 75.5305 5.5592 75.5452 6.54023C75.5892 9.09687 75.5599 11.6535 75.5599 14.1953C75.5599 14.1953 75.5599 14.1953 75.5452 14.1953C75.5452 16.7816 75.5452 19.3829 75.5452 21.9692C75.5452 22.8611 75.824 23.4408 76.8219 23.4111C77.7464 23.3813 78.6709 23.4111 79.5954 23.3962C79.9916 23.3813 80.2851 23.2922 80.4759 23.0841C80.7547 22.7868 80.74 22.3409 80.74 22.1773C80.7254 21.3747 80.8721 19.8437 81.1509 17.6438C82.7064 19.8139 83.9244 21.5085 84.6875 22.5787C84.8196 22.7719 84.9957 23.0246 85.3185 23.2178C86.0229 23.6489 86.4778 23.4259 88.2094 23.4408C88.5323 23.4408 88.8551 23.4557 89.1633 23.4557C90.3519 23.4408 90.6601 22.9949 90.1465 21.9395C89.3394 20.3342 88.4883 18.7437 87.6665 17.1681ZM83.176 13.0656C82.9999 13.0953 82.8238 13.0953 82.6477 13.1102C81.9287 13.1399 81.4884 13.1697 81.2096 13.0805C80.74 12.9318 80.74 12.471 80.7107 11.267C80.7107 10.94 80.7254 10.6279 80.7107 10.3009C80.6667 9.7063 80.9015 9.43875 81.5031 9.48334C82.0607 9.51307 82.6331 9.46848 83.1907 9.5428C84.0858 9.66171 84.7022 10.4792 84.6875 11.4603C84.6875 12.4413 84.0859 12.917 83.176 13.0656Z" fill="white"/>
<path d="M42.4685 7.99692C40.4287 5.91594 37.8753 4.9795 34.9551 5.08355C33.649 5.12814 32.3283 5.03895 31.0223 4.9795C29.6722 4.92004 29.1146 5.44029 29.1146 6.79293C29.1146 9.30497 29.1146 11.8319 29.1146 14.3439C29.1146 14.3439 29.1146 14.3439 29.1292 14.3439C29.1292 16.9303 29.1439 19.5167 29.1292 22.1179C29.1292 23.0246 29.4521 23.3962 30.4059 23.3665C32.431 23.307 34.4561 23.5003 36.4666 23.3368C37.7433 23.2327 39.108 22.9057 40.2086 22.2814C43.9213 20.1855 45.4328 16.8857 44.8311 12.6048C44.5523 10.7914 43.6865 9.23065 42.4685 7.99692ZM39.6656 15.7114C39.2694 17.4059 36.2758 19.1005 34.7056 18.491C34.5295 18.4167 34.3094 18.1343 34.3094 17.9559C34.28 15.3398 34.2947 12.7237 34.2947 10.1374C38.0074 9.51307 40.5021 12.1589 39.6656 15.7114Z" fill="white"/>
<path d="M145.162 17.7627C144.399 16.6776 144.545 16.1276 145.426 15.2952C147.128 13.7196 147.568 11.6832 146.908 9.48334C146.13 6.91184 144.223 5.45515 141.699 5.20246C139.16 4.94977 136.592 5.143 134.038 5.143C133.202 5.143 132.85 5.51461 132.864 6.40646C132.908 8.99282 132.879 11.5792 132.879 14.1804H132.864C132.864 16.7668 132.864 19.3532 132.864 21.9544C132.864 23.2773 132.997 23.3813 134.244 23.3665C135.022 23.3516 135.799 23.3813 136.577 23.4408C137.003 23.4705 137.326 23.3962 137.531 23.203C137.839 22.9057 137.824 22.43 137.824 22.2517C137.824 21.3747 137.986 19.8139 138.294 17.5546C140.583 20.7504 141.816 22.4746 141.816 22.4746C141.816 22.4746 142.476 23.307 143.093 23.3813C144.252 23.5151 145.441 23.4557 146.6 23.4111C147.539 23.3665 147.789 22.9057 147.363 22.0436C146.673 20.5869 146.086 19.0559 145.162 17.7627ZM140.128 13.0656C140.026 13.0805 139.923 13.0805 139.806 13.0953C137.869 13.2291 137.869 13.2291 137.81 11.2373C137.751 9.39416 137.751 9.40902 139.571 9.45361C140.378 9.48334 141.126 9.58739 141.537 10.4346C142.212 11.7576 141.596 12.917 140.128 13.0656Z" fill="white"/>
<path d="M56.6736 18.6545C54.8832 18.6694 53.0783 18.6545 51.2146 18.6545C51.2293 18.1194 51.2146 17.6884 51.1999 17.3911C51.1706 16.9006 51.1265 16.6776 51.2733 16.4992C51.4787 16.2614 51.8749 16.2911 52.0657 16.306C52.9462 16.3357 53.8414 16.3209 54.7218 16.3209C57.8035 16.3209 57.554 16.3506 57.5687 13.5561C57.5687 12.5751 57.2165 12.1589 56.2773 12.1589C54.8979 12.1738 53.5038 12.1292 52.1244 12.1738C51.919 12.1886 51.5521 12.2035 51.3613 11.9805C51.288 11.8913 51.2586 11.7873 51.2586 11.0887C51.2586 10.3157 51.3026 10.1968 51.376 10.1076C51.5961 9.85495 51.9923 9.89954 52.1684 9.89954C53.9734 9.97386 55.7931 9.959 57.5981 9.9144C59.0215 9.88467 59.359 9.46848 59.2857 8.07124C59.271 7.68478 59.271 7.28344 59.3003 6.88211C59.4177 5.38083 59.1829 5.11328 57.6714 5.09841C54.2229 5.06868 50.789 5.06868 47.3405 5.06868C46.2986 5.06868 45.9757 5.41056 45.9904 6.51051C46.0051 7.37263 46.0638 8.23475 46.0785 9.09687C46.0785 13.2588 46.0785 17.4357 46.0785 21.5976C46.0785 23.2327 46.2545 23.4111 47.8247 23.4111C51.1559 23.4111 54.5017 23.4111 57.8329 23.4111C59.3737 23.4111 59.5351 23.2178 59.5791 21.6868C59.6378 18.6397 59.6378 18.6397 56.6736 18.6545Z" fill="white"/>
<path d="M105.819 14.5669C104.865 12.0548 103.838 9.58739 102.928 7.06048C102.415 5.64839 102.033 5.17273 100.874 5.11328C97.9681 4.9795 97.9094 5.00923 97.2197 6.79293C96.0897 9.72117 94.9598 12.6643 93.8445 15.6074C93.0521 17.6884 92.2596 19.7545 91.4966 21.8355C91.1003 22.9057 91.4525 23.4111 92.5678 23.4408C93.2428 23.4557 93.9179 23.3962 94.5929 23.4408C95.7375 23.5151 96.4126 23.0543 96.6327 21.8801C96.7941 21.0031 97.2931 20.6315 98.2176 20.6909C99.4943 20.7652 100.771 20.7504 102.048 20.6761C102.811 20.6315 103.104 20.8842 103.28 21.6125C103.647 23.1138 104.102 23.4259 105.599 23.4259C105.878 23.4259 106.171 23.4259 106.45 23.4259C108.989 23.4259 109.033 23.4111 108.226 21.0328C107.448 18.8478 106.641 16.7073 105.819 14.5669ZM98.6871 16.0979C99.1274 14.7453 99.5383 13.5264 100.008 12.0994C100.521 13.5264 100.962 14.7601 101.431 16.0979C100.419 16.0979 99.6116 16.0979 98.6871 16.0979Z" fill="white"/>
<path d="M72.9331 5.11327C69.2791 5.11327 65.6104 5.11327 61.9565 5.11327C60.6651 5.11327 60.445 5.32137 60.4303 6.58483C60.4156 7.16453 60.4303 7.72937 60.4303 8.30907C60.4303 9.57253 60.7238 9.88467 61.9858 9.9144C62.9397 9.92927 63.8935 9.9144 64.9354 9.9144C64.9648 10.2265 65.0088 10.3752 65.0088 10.509C65.0088 14.3142 65.0088 18.1343 64.9794 21.9395C64.9648 22.98 65.4344 23.3665 66.4029 23.3219C67.0339 23.2922 67.6796 23.307 68.3253 23.307C69.9541 23.3219 70.0862 23.2178 70.0862 21.5382C70.0862 18.0154 70.1009 14.4926 70.0715 10.9549C70.0715 10.182 70.277 9.78062 71.0988 9.88467C71.3482 9.9144 71.5977 9.88467 71.8472 9.88467C74.7968 9.88467 74.7968 9.88467 74.7821 6.89697C74.7234 5.36597 74.4593 5.11327 72.9331 5.11327Z" fill="white"/>
<path d="M159.117 18.0302C159.044 17.1978 159.029 17.5992 159.044 15.4439C159.117 7.09021 159.132 6.49564 159.132 6.49564C159.132 6.28754 159.161 5.75243 158.809 5.41056C158.589 5.20246 158.266 5.09841 157.811 5.11327C156.931 5.12814 156.036 5.143 155.155 5.11327C154.187 5.08355 153.805 5.5592 153.82 6.48078C153.849 10.3603 153.864 14.2399 153.908 18.1194C153.923 19.3829 153.145 19.9774 152.074 19.3086C151.105 18.6991 150.503 19.0559 149.858 19.7248C149.52 20.0815 149.197 20.4977 148.801 20.7801C148.097 21.2855 148.141 21.9247 148.566 22.4449C149.506 23.6192 150.724 24.3772 152.25 24.5853C156.182 25.1353 159.455 21.6868 159.117 18.0302Z" fill="white"/>
<path d="M128.99 19.0707C127.728 19.0707 126.863 20.0072 126.877 21.3747C126.892 22.5044 127.787 23.3219 128.99 23.3219C130.296 23.307 131.192 22.5192 131.206 21.3598C131.221 20.0964 130.238 19.0856 128.99 19.0707Z" fill="white"/>
<path d="M0.00704889 10.0131C0.00704889 7.73808 0.0048613 5.46306 0.00814268 3.18804C0.00923647 2.22449 0.22362 1.99363 1.19491 2.00013C4.60098 2.02289 8.01361 1.9416 11.4131 2.11611C17.7341 2.44235 24.6863 8.15536 23.9469 16.7254C23.3934 23.1354 18.7765 27.9293 12.286 28.9524C11.6231 29.0565 11.6002 29.0392 11.6002 28.3834C11.6013 25.3139 11.6034 22.2444 11.6034 19.175C11.6034 17.922 11.3234 17.6445 10.0601 17.6435C6.96248 17.6424 3.86486 17.6467 0.767235 17.6467C0.0125179 17.6467 0.00048613 17.6359 0.00048613 16.8913C-0.000607663 14.6 0.00048613 12.3065 0.00048613 10.0131C0.00267372 10.0131 0.0048613 10.0131 0.00704889 10.0131Z" fill="white"/>
<path d="M0.510254 19.9163C0.569319 19.9131 0.70823 19.8979 0.847142 19.8979C3.35849 19.8936 5.86984 19.8882 8.38119 19.8903C9.25513 19.8903 9.35685 19.9976 9.35794 20.8506C9.35904 23.3392 9.35904 25.8277 9.36013 28.3162C9.36013 28.4528 9.36013 28.5905 9.36013 28.7249C6.39376 25.7713 3.45256 22.8449 0.510254 19.9163Z" fill="white"/>
</g>
<defs>
<clipPath id="clip0_3343_2836">
<rect width="159" height="29" fill="white"/>
</clipPath>
</defs>
</svg>
