<?xml version="1.0" encoding="utf-8"?>
<!-- Generator: Adobe Illustrator 28.3.0, SVG Export Plug-In . SVG Version: 6.00 Build 0)  -->
<svg version="1.1" id="Camada_2_00000065047156207802766860000013292287433484051100_"
	 xmlns="http://www.w3.org/2000/svg" xmlns:xlink="http://www.w3.org/1999/xlink" x="0px" y="0px" viewBox="0 0 579 145.8"
	 style="enable-background:new 0 0 579 145.8;" xml:space="preserve">
<style type="text/css">
	.st0{fill:#B1B6C7;}
</style>
<g id="Camada_1-2">
	<g>
		<path class="st0" d="M152.4,113.4c-0.6,0-1.3-0.7-1.1-1.5l1.6-5.7c-6.1,5.5-13.8,8.8-22.7,8.8c-22.3,0-35.9-20.2-29-49.7
			c4.4-19,16.7-36.9,40-36.9c12,0,21.5,5,26.4,14.6l2.1-11.5c0.2-0.8,1-1.5,1.8-1.5h21.7c0.8,0,1.3,0.6,1.1,1.5l-9.7,40.3l-8.9,40.2
			c-0.2,0.8-1,1.5-1.8,1.5L152.4,113.4L152.4,113.4z M139.6,98.8c10.4,0.2,17.3-7.8,21.1-23C165,56,159.2,45.3,148,44.5h-2.9
			c-9.6,0.7-16.2,8.6-19.4,23.5C120.8,88.1,127.3,98.9,139.6,98.8z"/>
		<path class="st0" d="M220.6,145.8c-20.6,0.3-37.9-8.6-36.8-26.9c0-0.8,0.8-1.5,1.6-1.5h20.9c1,0,1.6,0.7,1.8,1.5
			c1,6.8,7.1,10.8,15.4,10.8c10.5,0,17.5-5.8,20.6-18.9l1.8-7.4c-6.5,6-14.4,9.6-24,9.6c-22.7,0-35.9-19.4-29.3-48.1
			c4.4-18.8,16.8-36.4,40.3-36.4c11.8,0,21.1,4.9,26.1,14.1l1.9-11c0.2-0.8,1-1.5,1.8-1.5h21.4c0.8,0,1.3,0.6,1.1,1.5l-9.9,41.5
			l-8.6,38.2C262,132.1,248.1,145.8,220.6,145.8L220.6,145.8z M231.3,96.7c9.4,0.2,16.2-6.2,19.9-18.3c0.5-2.3,1-4.4,1.5-6.6
			c2.9-16.7-2.4-26.1-12.1-27c-0.5-0.2-2.9-0.2-3.7-0.2c-9.7,0.7-16.5,8.3-19.8,23C212.5,86.7,218.7,96.9,231.3,96.7L231.3,96.7z"/>
		<path class="st0" d="M371.8,30c0.8,0,1.3,0.6,1.1,1.5L363.6,70l-9.4,41.9c-0.2,0.8-1,1.5-1.8,1.5h-20.6c-0.6,0-1.3-0.7-1.1-1.5
			l2.6-9.1c-7,7-16.2,12.5-26.6,12.5c-18.8,0-28.8-11.7-24.5-32.4l3.7-17.5l7.8-34c0.2-0.8,1-1.5,1.8-1.5h21.2
			c0.8,0,1.3,0.6,1.1,1.5l-8.4,34l-3.9,17.2c-2.1,9.2,2.6,14.9,11.2,14.9c8.1,0,18.3-8.1,22.5-25.9l1.3-6.2l7.9-34
			c0.2-0.8,1-1.5,1.8-1.5L371.8,30L371.8,30z"/>
		<path class="st0" d="M449.9,85.2c0.8,0,1.3,0.7,1.1,1.5c-4.2,15.2-18,28.8-43.9,28.8s-37.7-15.1-37.7-35.5
			c0-24.1,14.4-52.2,50.2-52.2c27.4,0,42.3,18.1,35.3,47.3c-0.2,0.8-1,1.5-1.8,1.5h-59.8v3.2c0,12.8,4.5,19.4,14.9,19.4
			c9.5,0,16.5-3.7,19.4-12.6c0.2-1,1-1.5,1.8-1.5H449.9L449.9,85.2z M417.4,43.9c-10.4,0-17.5,6.8-21.2,17.3h35.8
			C433.7,52.5,428.4,43.9,417.4,43.9L417.4,43.9z"/>
		<g>
			<path class="st0" d="M39.2,0H27.4c-0.8,0-1.6,0.6-1.8,1.5L22,18h12.8L39.2,0z"/>
			<path class="st0" d="M66.9,0H52.5l-3.9,18h16.7c10.8,0,16,5,16,15.5C81.3,49.4,70.8,56,60.4,56H13.6l-0.1,0.7L0,111.9
				c-0.2,0.8,0.3,1.5,1.1,1.5h22.2c0.8,0,1.6-0.7,1.8-1.5L33.4,74h22.7c30.4,0,49.6-16,49.6-43.2C105.6,10.5,91,0,66.9,0z"/>
		</g>
		<g>
			<polygon class="st0" points="488.5,15.6 515.8,15.6 513.7,10.1 486.2,10.1 			"/>
			<path class="st0" d="M485.1,7.7h27.6l-2.5-6.4c-0.3-0.6-1.1-1.3-1.9-1.3h-25.1c-0.6,0-1.1,0.6-0.8,1.3L485.1,7.7z"/>
			<path class="st0" d="M578.4,0h-26.7c-0.8,0-1.8,0.5-2.3,1.1L523.3,35l-5-12.9h-27l13.4,31.2l-51,58.9c-0.3,0.5-0.2,1.1,0.5,1.1
				h26.7c0.8,0,1.8-0.5,2.4-1.1l30.5-39.3l14.6,39.2c0.3,0.7,1.1,1.3,1.9,1.3h24.9c0.7,0,1.1-0.7,0.8-1.3l-24-56.8l46.8-54.1
				C579.2,0.6,579,0,578.4,0L578.4,0z"/>
		</g>
	</g>
</g>
</svg>
