<svg width="119" height="30" viewBox="0 0 119 30" fill="none" xmlns="http://www.w3.org/2000/svg">
<g id="PAGUEX LOGO BRANCA 2" clip-path="url(#clip0_3238_4249)">
<g id="Camada 1">
<g id="Group">
<path id="Vector" d="M31.3238 23.3315C31.1902 23.3315 31.0587 23.1977 31.0916 23.031L31.4245 21.864C30.1606 22.9981 28.5966 23.6649 26.7654 23.6649C22.1722 23.6649 19.3771 19.4992 20.8075 13.4317C21.7056 9.53143 24.2355 5.83289 29.0282 5.83289C31.4903 5.83289 33.455 6.86609 34.4538 8.83371L34.8874 6.4668C34.9203 6.30009 35.0868 6.16631 35.2533 6.16631H39.713C39.8794 6.16631 39.9801 6.30009 39.9452 6.4668L37.9476 14.7654L36.1164 23.031C36.0835 23.1977 35.9171 23.3315 35.7506 23.3315H31.3238ZM28.6952 20.3307C30.8244 20.3636 32.2568 18.7315 33.0213 15.5969C33.9195 11.5299 32.7213 9.32973 30.4257 9.16508H29.8256C27.8629 9.29886 26.4983 10.931 25.8324 13.9977C24.8336 18.1305 26.1653 20.3636 28.6952 20.3307Z" fill="#0F2356" fill-opacity="0.18"/>
<path id="Vector_2" d="M45.3351 29.9979C41.1076 30.0638 37.5481 28.232 37.7803 24.4656C37.7803 24.2988 37.9468 24.1651 38.1132 24.1651H42.4065C42.6058 24.1651 42.7394 24.2988 42.7723 24.4656C42.9716 25.8651 44.2376 26.6987 45.9331 26.6987C48.0972 26.6987 49.5276 25.4988 50.1606 22.7984L50.5264 21.2651C49.1947 22.4979 47.5649 23.2306 45.6002 23.2306C40.9411 23.2306 38.2119 19.2316 39.5765 13.3308C40.4746 9.46349 43.0374 5.83081 47.8629 5.83081C50.2921 5.83081 52.189 6.83108 53.2207 8.73078L53.6194 6.46473C53.6523 6.29802 53.8188 6.16424 53.9852 6.16424H58.3792C58.5456 6.16424 58.6463 6.29802 58.6114 6.46473L56.5809 14.9979L54.8176 22.8643C53.8517 27.1968 50.9909 29.9979 45.333 29.9979H45.3351ZM47.532 19.8985C49.4618 19.9314 50.8593 18.6327 51.6259 16.132C51.7266 15.6648 51.8253 15.2326 51.926 14.7654C52.5261 11.3323 51.4266 9.39969 49.4289 9.20005C49.3282 9.16712 48.8288 9.16712 48.6644 9.16712C46.6668 9.3009 45.2693 10.8672 44.6034 13.9009C43.6704 17.8341 44.9364 19.9334 47.532 19.9005V19.8985Z" fill="#0F2356" fill-opacity="0.18"/>
<path id="Vector_3" d="M76.4199 6.16624C76.5864 6.16624 76.6851 6.30002 76.6522 6.46674L74.7224 14.399L72.7926 23.031C72.7597 23.1977 72.5932 23.3314 72.4268 23.3314H68.1993C68.0657 23.3314 67.9321 23.1977 67.9671 23.031L68.4994 21.1642C67.069 22.5967 65.172 23.7307 63.0408 23.7307C59.1792 23.7307 57.1158 21.3309 58.016 17.0643L58.7826 13.4645L60.3794 6.46468C60.4123 6.29797 60.5788 6.16418 60.7452 6.16418H65.1042C65.2707 6.16418 65.3693 6.29797 65.3365 6.46468L63.606 13.4645L62.8066 16.9984C62.3729 18.8981 63.3388 20.0651 65.1022 20.0651C66.7669 20.0651 68.8631 18.398 69.7283 14.7324L69.9955 13.4666L71.6253 6.46674C71.6581 6.30002 71.8246 6.16624 71.9911 6.16624H76.4179H76.4199Z" fill="#0F2356" fill-opacity="0.18"/>
<path id="Vector_4" d="M92.46 17.5316C92.6264 17.5316 92.7271 17.6654 92.6922 17.8321C91.827 20.9646 88.997 23.7658 83.6721 23.7658C78.3472 23.7658 75.918 20.6662 75.918 16.4655C75.918 11.4991 78.8795 5.73206 86.2349 5.73206C91.8599 5.73206 94.922 9.46559 93.4896 15.4652C93.4567 15.6319 93.2902 15.7657 93.1238 15.7657H80.8421V16.4325C80.8421 19.0649 81.7731 20.4316 83.9043 20.4316C85.867 20.4316 87.2995 19.6659 87.8975 17.8321C87.9304 17.6324 88.0969 17.5316 88.2633 17.5316H92.4559H92.46ZM85.7725 9.03337C83.6433 9.03337 82.178 10.4329 81.4135 12.6002H88.7689C89.1347 10.7993 88.0373 9.03337 85.7745 9.03337H85.7725Z" fill="#0F2356" fill-opacity="0.18"/>
<g id="Group_2">
<path id="Vector_5" d="M8.05235 0H5.63137C5.46491 0 5.29844 0.133782 5.26555 0.300494L4.51953 3.7006H7.15425L8.05235 0Z" fill="#0F2356" fill-opacity="0.18"/>
<path id="Vector_6" d="M13.7512 0H10.7877L9.98205 3.7006H13.4162C15.6461 3.7006 16.7106 4.73381 16.7106 6.90107C16.7106 10.1674 14.5466 11.534 12.4174 11.534H2.7972L2.76843 11.6678L0.00629594 23.031C-0.0265866 23.1977 0.0720611 23.3315 0.238529 23.3315H4.79893C4.9654 23.3315 5.13187 23.1977 5.16475 23.031L6.86231 15.2326H11.5214C17.7773 15.2326 21.7047 11.9333 21.7047 6.33301C21.7067 2.16726 18.7103 0 13.7512 0Z" fill="#0F2356" fill-opacity="0.18"/>
</g>
<g id="Group_3">
<path id="Vector_7" d="M100.391 3.20259H105.997L105.564 2.08911H99.9141L100.391 3.20259Z" fill="#0F2356" fill-opacity="0.18"/>
<path id="Vector_8" d="M99.6975 1.58686H105.368L104.854 0.267563C104.788 0.133782 104.622 0 104.455 0H99.2968C99.1632 0 99.0645 0.133782 99.1303 0.267563L99.6975 1.58686Z" fill="#0F2356" fill-opacity="0.18"/>
<path id="Vector_9" d="M118.868 0H113.376C113.21 0 113.01 0.100851 112.91 0.232574L107.552 7.19951L106.518 4.5424H100.967L103.725 10.966L93.2418 23.0989C93.176 23.1998 93.2089 23.3315 93.3425 23.3315H98.8339C99.0004 23.3315 99.1997 23.2307 99.3333 23.0989L105.591 15L108.586 23.066C108.651 23.1998 108.818 23.3336 108.984 23.3336H114.11C114.243 23.3336 114.342 23.1998 114.276 23.066L109.35 11.3673L118.966 0.232574C119.032 0.131723 118.999 0 118.866 0H118.868Z" fill="#0F2356" fill-opacity="0.18"/>
</g>
</g>
</g>
</g>
<defs>
<clipPath id="clip0_3238_4249">
<rect width="119" height="30" fill="white"/>
</clipPath>
</defs>
</svg>
