<svg width="10" height="11" viewBox="0 0 10 11" fill="none" xmlns="http://www.w3.org/2000/svg">
<g id="Group 692">
<g id="Group 693">
<path id="Vector" d="M9.83093 5.67487C9.93237 5.57129 10 5.43319 10 5.29508C10 5.15698 9.93237 5.01887 9.83093 4.91529L7.15943 2.32584C7.02416 2.18774 6.82126 2.18774 6.686 2.32584C6.55073 2.46394 6.55073 2.6711 6.686 2.8092L8.88407 4.94982L2.56039 4.94982C2.35749 4.94982 2.22223 5.08792 2.22223 5.29508C2.22223 5.50224 2.35749 5.64034 2.56039 5.64034L8.88407 5.64034L6.686 7.74643C6.55073 7.88454 6.55073 8.09169 6.686 8.2298C6.82126 8.3679 7.02416 8.3679 7.15943 8.2298L9.83093 5.67487Z" fill="#E84E1B"/>
<path id="Vector_2" d="M2.77777 10.261C2.77777 10.0674 2.63712 9.93832 2.42615 9.93832L1.72292 9.93832C1.16033 9.93832 0.703227 9.51885 0.703227 9.00257L0.703228 1.5811C0.703228 1.06482 1.16033 0.645346 1.72292 0.645346L2.42615 0.645346C2.63712 0.645346 2.77777 0.516277 2.77777 0.322673C2.77777 0.129069 2.63712 -6.14788e-09 2.42615 -1.53697e-08L1.72292 -4.6109e-08C0.773552 -8.76072e-08 -7.18359e-06 0.70988 -7.22167e-06 1.5811L-7.54466e-06 8.97031C-7.58274e-06 9.84152 0.773551 10.5514 1.72292 10.5514L2.42615 10.5514C2.63712 10.5837 2.77777 10.4223 2.77777 10.261Z" fill="#E84E1B"/>
</g>
</g>
</svg>
