<svg width="46" height="46" viewBox="0 0 46 46" fill="none" xmlns="http://www.w3.org/2000/svg">
<g id="Group 613">
<g id="Group 602">
<g id="Ellipse 2" filter="url(#filter0_d_3184_7139)">
<circle cx="20" cy="20" r="18" fill="#ECF0F8"/>
</g>
</g>
<g id="Group 610">
<g id="Group 609">
<g id="Group">
<path id="Vector" d="M26.2241 28.9116H13.6522C13.4977 28.9116 13.3652 28.7938 13.3652 28.6564V24.7984C13.3652 21.5785 16.3123 18.9476 19.9437 18.9476C23.5641 18.9476 26.5222 21.5687 26.5222 24.7984V28.6564C26.5111 28.7938 26.3787 28.9116 26.2241 28.9116ZM13.9392 28.3913H25.9261V24.7886C25.9261 21.8436 23.2329 19.4581 19.9327 19.4581C16.6214 19.4581 13.9392 21.8534 13.9392 24.7886V28.3913Z" fill="#0F2356"/>
</g>
<g id="Group 611">
<path id="Vector_2" d="M20.002 18.5C17.5192 18.5 15.502 16.4827 15.502 14C15.502 11.5172 17.5192 9.5 20.002 9.5C22.4847 9.5 24.502 11.5172 24.502 14C24.502 16.4827 22.4847 18.5 20.002 18.5ZM20.002 10.0043C17.8005 10.0043 16.016 11.7985 16.016 13.9903C16.016 16.1918 17.8101 17.9763 20.002 17.9763C22.2035 17.9763 23.9879 16.1821 23.9879 13.9903C23.9976 11.7985 22.2035 10.0043 20.002 10.0043Z" fill="#0F2356"/>
</g>
</g>
</g>
</g>
<defs>
<filter id="filter0_d_3184_7139" x="0" y="0" width="46" height="46" filterUnits="userSpaceOnUse" color-interpolation-filters="sRGB">
<feFlood flood-opacity="0" result="BackgroundImageFix"/>
<feColorMatrix in="SourceAlpha" type="matrix" values="0 0 0 0 0 0 0 0 0 0 0 0 0 0 0 0 0 0 127 0" result="hardAlpha"/>
<feMorphology radius="1" operator="dilate" in="SourceAlpha" result="effect1_dropShadow_3184_7139"/>
<feOffset dx="3" dy="3"/>
<feGaussianBlur stdDeviation="2"/>
<feComposite in2="hardAlpha" operator="out"/>
<feColorMatrix type="matrix" values="0 0 0 0 0.0256874 0 0 0 0 0.0827708 0 0 0 0 0.228333 0 0 0 0.23 0"/>
<feBlend mode="normal" in2="BackgroundImageFix" result="effect1_dropShadow_3184_7139"/>
<feBlend mode="normal" in="SourceGraphic" in2="effect1_dropShadow_3184_7139" result="shape"/>
</filter>
</defs>
</svg>
