<svg width="46" height="46" viewBox="0 0 46 46" fill="none" xmlns="http://www.w3.org/2000/svg">
<g filter="url(#filter0_d_5169_1539)">
<circle cx="20" cy="20" r="18" fill="white"/>
</g>
<path d="M26.2241 28.9116H13.6522C13.4977 28.9116 13.3652 28.7938 13.3652 28.6564V24.7984C13.3652 21.5785 16.3123 18.9476 19.9437 18.9476C23.5641 18.9476 26.5222 21.5687 26.5222 24.7984V28.6564C26.5111 28.7938 26.3787 28.9116 26.2241 28.9116ZM13.9392 28.3913H25.9261V24.7886C25.9261 21.8436 23.2329 19.4581 19.9327 19.4581C16.6214 19.4581 13.9392 21.8534 13.9392 24.7886V28.3913Z" fill="#E84E1B"/>
<path d="M20.0023 18.5C17.5195 18.5 15.5023 16.4827 15.5023 14C15.5023 11.5172 17.5195 9.5 20.0023 9.5C22.485 9.5 24.5023 11.5172 24.5023 14C24.5023 16.4827 22.485 18.5 20.0023 18.5ZM20.0023 10.0043C17.8008 10.0043 16.0163 11.7985 16.0163 13.9903C16.0163 16.1918 17.8105 17.9763 20.0023 17.9763C22.2038 17.9763 23.9882 16.1821 23.9882 13.9903C23.9979 11.7985 22.2038 10.0043 20.0023 10.0043Z" fill="#E84E1B"/>
<defs>
<filter id="filter0_d_5169_1539" x="0" y="0" width="46" height="46" filterUnits="userSpaceOnUse" color-interpolation-filters="sRGB">
<feFlood flood-opacity="0" result="BackgroundImageFix"/>
<feColorMatrix in="SourceAlpha" type="matrix" values="0 0 0 0 0 0 0 0 0 0 0 0 0 0 0 0 0 0 127 0" result="hardAlpha"/>
<feMorphology radius="1" operator="dilate" in="SourceAlpha" result="effect1_dropShadow_5169_1539"/>
<feOffset dx="3" dy="3"/>
<feGaussianBlur stdDeviation="2"/>
<feComposite in2="hardAlpha" operator="out"/>
<feColorMatrix type="matrix" values="0 0 0 0 0.0256874 0 0 0 0 0.0827708 0 0 0 0 0.228333 0 0 0 0.23 0"/>
<feBlend mode="normal" in2="BackgroundImageFix" result="effect1_dropShadow_5169_1539"/>
<feBlend mode="normal" in="SourceGraphic" in2="effect1_dropShadow_5169_1539" result="shape"/>
</filter>
</defs>
</svg>
